/* XPM */
static char *ffe0f27cf9f94068b6a05199739ac6bcuLfZNu4eNEYZrrKo[] = {
/* columns rows colors chars-per-pixel */
"64 64 201 2 ",
"   c #7B7D43",
".  c #7C7D43",
"X  c #7C7E43",
"o  c #7D7E43",
"O  c #7D7F43",
"+  c #787A44",
"@  c #797A44",
"#  c #797B44",
"$  c #787A45",
"%  c #797A45",
"&  c #7A7B44",
"*  c #7A7B45",
"=  c #797A46",
"-  c #787A47",
";  c #797A47",
":  c #797B47",
">  c #7A7B46",
",  c #7A7B47",
"<  c #7A7C44",
"1  c #7B7C45",
"2  c #7B7D45",
"3  c #7A7C46",
"4  c #7B7C46",
"5  c #7B7D46",
"6  c #7B7D47",
"7  c #7C7D44",
"8  c #7C7D45",
"9  c #7C7E44",
"0  c #7D7E44",
"q  c #7C7F44",
"w  c #7D7F44",
"e  c #7C7E45",
"r  c #7D7E45",
"t  c #7D7F45",
"y  c #7E7F44",
"u  c #7E7F45",
"i  c #7C7D46",
"p  c #7C7E46",
"a  c #7D7E46",
"s  c #7C7F46",
"d  c #7D7F46",
"f  c #7C7E47",
"g  c #7D8043",
"h  c #7E8142",
"j  c #7F8142",
"k  c #7E8043",
"l  c #7F8143",
"z  c #7F8242",
"x  c #7F8243",
"c  c #7E8044",
"v  c #7F8044",
"b  c #7E8144",
"n  c #7F8144",
"m  c #7E8045",
"M  c #7F8045",
"N  c #7F8145",
"B  c #7F8244",
"V  c #7F8245",
"C  c #7D8046",
"Z  c #7E8046",
"A  c #7F8046",
"S  c #7F8146",
"D  c #86893F",
"F  c #878A3F",
"G  c #878B3F",
"H  c #888C3F",
"J  c #818341",
"K  c #808143",
"L  c #808242",
"P  c #808342",
"I  c #818342",
"U  c #808243",
"Y  c #818243",
"T  c #808343",
"R  c #818343",
"E  c #818441",
"W  c #828541",
"Q  c #838541",
"!  c #838640",
"~  c #838641",
"^  c #838741",
"/  c #818442",
"(  c #818443",
")  c #828442",
"_  c #828542",
"`  c #838542",
"'  c #828443",
"]  c #828543",
"[  c #838543",
"{  c #838642",
"}  c #838742",
"|  c #838643",
" . c #848740",
".. c #848641",
"X. c #848741",
"o. c #848543",
"O. c #848642",
"+. c #848742",
"@. c #858742",
"#. c #848643",
"$. c #848743",
"%. c #858743",
"&. c #868743",
"*. c #808144",
"=. c #808244",
"-. c #808344",
";. c #818344",
":. c #808245",
">. c #808345",
",. c #818345",
"<. c #828444",
"1. c #828544",
"2. c #848644",
"3. c #848744",
"4. c #858744",
"5. c #858745",
"6. c #868744",
"7. c #848840",
"8. c #858840",
"9. c #858940",
"0. c #848841",
"q. c #858841",
"w. c #858941",
"e. c #868940",
"r. c #868941",
"t. c #878941",
"y. c #868A40",
"u. c #878A40",
"i. c #878B40",
"p. c #868A41",
"a. c #878A41",
"s. c #878B41",
"d. c #848842",
"f. c #858842",
"g. c #858942",
"h. c #858843",
"j. c #868842",
"k. c #868942",
"l. c #878942",
"z. c #868843",
"x. c #878843",
"c. c #868943",
"v. c #878943",
"b. c #868A42",
"n. c #878A42",
"m. c #878B42",
"M. c #878A43",
"N. c #858845",
"B. c #878844",
"V. c #878944",
"C. c #868845",
"Z. c #878845",
"A. c #878A44",
"S. c #878A45",
"D. c #868946",
"F. c #888942",
"G. c #888943",
"H. c #888A42",
"J. c #888B42",
"K. c #898B42",
"L. c #888A43",
"P. c #898A43",
"I. c #888B43",
"U. c #898B43",
"Y. c #888C40",
"T. c #888944",
"R. c #898944",
"E. c #888845",
"W. c #888945",
"Q. c #898945",
"!. c #888A44",
"~. c #898A44",
"^. c #888B44",
"/. c #898B44",
"(. c #888A45",
"). c #898A45",
"_. c #888B45",
"`. c #898B45",
"'. c #8A8B45",
"]. c #888946",
"[. c #898946",
"{. c #888A46",
"}. c #898A46",
"|. c #898B46",
" X c #898A47",
".X c #8A8A46",
"XX c #8A8B46",
"oX c #8B8B46",
"OX c #8A8A47",
"+X c #8A8B47",
"@X c #8B8B47",
"#X c #898C44",
"$X c #8A8C46",
"%X c #8B8C46",
"&X c #8B8D46",
"*X c #8B8C47",
"=X c #8C8C46",
"-X c #8C8C47",
";X c #8C8D47",
":X c #8D8D47",
">X c #8D8D48",
/* pixels */
"n.X n.Q.#.D #.I #.Q.} } n.D X #.V.n.} n.X n.Q.n.} n.} j Q.V.d.} n.  n.V.n.} #.j } Q.} } n.D X F.Q.} } F.X #.Q.n.} #.} j V.n.} #.",
"#.X } Q.n.F n.X I Q.n.n.n.j X n.Q.n.#.n.X j Q.n.G #.j j n.n.G n.#.  n.Q.n.G n.j } Q.n.#.n.j X n.Q.G n.n.X j Q.Y.G n.j j V.n.n.G ",
"n.n.n.Q.9 >.n.#.n.Q.} % F.#.n.#.Y.: >.n.n.} Q.B 9 2.n.n.Q.#.% } #.G } Q.9 j #.n.} Q.B % n.#.n.#.Q.- I #.n.} Q.B q F.n.n.Q.n.% } ",
"n.B n.Q.I } #.} #.#X>.I F.n.I F.Q.I I n.j n.Q.#.2.n.#.I Q.#.>.} F.} #.Q.2.I #.} n.Q.2.} n.#.I n.#XI } F.B n.-X} >.#.#.#.Q.#.>.} ",
"} % 2.Q.s.s.n.9 >.Q.n.Y.F.>.% F.Q.s.n.V.% B #Xn.n.n.j X Q.F.n.n.2.q V.Q.n.n.n.9 j #Xn.F.x.>.% F.#XF.#.n.% } -Xs.F #.j X Q.F.s.n.",
"} n.V.Q.B x #.n.#.Q.} % F.} #.n.Q.q } n.n.} >X>.9 #.} n.V.Q.q #.2.n.2.Q.B j 2.n.#.+X2.% F.} n.n.Q.q } n.#.I Q.>.B n.#.n.V.V.$ n.",
"#.#.n.Q.>.I n.#.n.Q.I >.n.n.#.n.Q.>.I n.} #.+X2.I n.n.#.V.V.B } n.} n.Q.>.I V.} n.Q.I >.F.n.#.#.Q.B } n.#.n.V.2.>.#.#.#.V.2.>.2.",
"#.% n.V.n.G n.& I #X#.G n.I % n.F.G #.n.& I Q.Y.F.n.X X Q.n.s.n.} $ #.Q.G G n.  I #X#.G n.j 9 F.Q.s.d.n.& I Q.s.H #.I 9 V.n.G n.",
"} } V.#X9 } n.} } Q.} q F.} } n.#Xq d.Q.} } #X2.j n.#.#.Q.Q.q F.#.#.n.F.B } 2.#.#.-Xn.  F.} } F.#X9 #.F.} } Q.} I F.} #.F.Q.q n.",
"n.n.V.Q.>.I #.n.n.>Xj B F.n.n.#.V.B B F.n.#.*Xj B n.n.n.Q.2.9 #.#.F.n.Q.j j #.F.n.Q.j j n.n.#.#.#X9 I V.} n.>XB B n.n.F.Q.2.9 } ",
"#.% n.V.F.n.#.9 I Q.n.n.#.I q 2.V.n.n.V.& } Q.n.#.#.B X Q.n.G #.n.$ n.V.n.} 2.q } +X} n.#.} 9 F.Q.n.D n.% } Q.n.#.#.I 9 V.V.F.n.",
"#.I 2.V.I D V.I >.Q.#.B F.I >.n.V.j D n.j } ].#.} n.2.>.V.s.j n.2.2.2.Q.} n.#.} B V.n.j n.I >.#.#Xx #.2.I I +XV.} #.#.I V.n.j n.",
"n.n.#.Q.B B #.n.F.>XB % F.#.n.n.#X: >.F.n.n.*XB 9 F.n.n.Q.Q.9 } } n.n.#XS B 2.n.n.+XB % Q.n.F.n.#X: >.F.n.n.#XB q n.n.s.Q.2.9 2.",
"n.& Y.Q.#.D n.9 } #X#.n.F.n.  n.V.n.} F.% } Q.n.#.F.D j 2.n.n.#.n.% F.Q.n.#.n.j } oX} n.n.D & n.#Xn.#.Y.% } Q.n.} n.} j Q.V.n.#.",
"} B #.Q.} n.n.j I Q.} } n.j j n.V.n.n.n.B j Q.n.} } j j Q.n.} n.} I } Q.d.n.n.j I Q.n.} n.I X n.Q.#.G n.B j Q.n.} #.x j Q.F.} G ",
"n.n.n.Q.q B 2.n.n.Q.B q F.n.F.#.Q.% j n.n.d.Q.B q n.n.d.Q.2.% } #.n.#.F.q 9 #.n.n.Q.B % n.} F.n.Y.- I #.n.n.Q.B 9 n.n.n.V.2.% #.",
"#.9 n.V.} } #.I #.Q.#.} n.} >.#.F.n.I n.X } +X#.n.#.#.>.Q.#.} } 2.q n.Q.n.#.2.B #.Q.} #.2.} 9 n.Q.#.} n.B } +Xd.} 2.2.I V.V.} #.",
"#.9 V.Q.n.n.#.B >.oXn.G #.I 9 F.Q.n.n.n.9 I #Xs.F #.>.j Q.F.n.n.#.B 2.Q.G F.#.j I Q.n.n.F.I B F.#Xn.n.#.9 j Q.s.n.V.B j Q.V.n.n.",
"n.n.2.*X9 j #.F.n.oX>.- F.} #.#.Q.- 2.V.n.2.>XB q #.#.} Q.V.- #.#.F.2.+Xq B x.n.n.Q.>.% Q.#.n.#.Q.% I n.n.2.>XB 9 F.#.} Q.Q.$ } ",
"n.j n.Q.2.} #.} #.Q.} } Q.G I n.Q.} I n.j n.Q.2.} #.n.} Q.V.2.} n.} n.V.} I #.} n.Q.} I n.G j n.Q.2.I F.B n.Q.2.} #.n.} Q.2.I } ",
"} % d.V.n.F n.X B Q.n.n.F.I 9 #.F.F.D n.% j V.s.G n.j j V.n.G n.} & #.Q.n.G n.X j Q.n.n.n.I & #.#Xs.D #.& I Q.Y.G #.j X V.n.n.n.",
"} n.n.Q.9 >.F.#.n.#XI % F.#.#.n.#X% I F.n.} #XB 9 n.} #.Q.n.% #.} #.n.Q.9 j n.#.n.Q.I q F.} n.n.V.q } Q.#.} #XB X n.n.n.Q.n.% n.",
"n.} V.Q.j I n.#.n.Q.I >.F.G 2.n.#X>.} n.} } >X2.I n.n.n.V.2.2.2.n.} n.Q.j } F.#.n.#XB B n.n.} Q.V.>.I n.#.n.Q.} I n.#.#.V.n.I 2.",
"2.% n.Q.s.n.n.9 I Q.n.s.n.x 9 F.Y.n.#.F.% } Q.n.F.#.X X Q.V.Y.#.2.$ n.Q.n.n.n.9 >.Q.n.n.Q.I % F.#Xn.n.n.& I #XF.F #.>.9 V.n.n.} ",
"} #.#.Q.>.} #.#.#.Q.2.B n.I #.#.Q.9 V.2.} I Q.2.B n.} } 2.Q.9 n.} } } Q.B 2.V.} #.Q.V.9 V.} } 2.Q.9 #.2.} I Q.#.I 2.} } 2.V.9 n.",
"n.#.V.Q.>.9 #.#.F oX>.9 n.n.#.F.#XS I V.n.#.Q.2.B 2.n.#.V.V.S 2.#.n.V.Q.B B n.#.F.Q.B B V.n.n.2.#XB I n.n.n.+X>.B F.n.n.Q.2.9 } ",
"n.$ n.Q.G D n.X D -X#.F.n.I % n.Y.G } F.% } -Xn.n.n.j j V.n.G n.n.& n.Q.G G n.X I Q.} n.n.I & n.Q.n.D n.% } oXG n.F.j X Q.n.Y.n.",
"} j n.#X} n.#.} j Q.#.} F.} I V.Q.x n.F.I } Q.#.I n.} j Q.n.j F.#.I } Q.I n.#.I } Q.} B F.} j n.#XB n.F.j j oX#.} #.} I Q.n.B n.",
"n.n.n.Q.9 B #.F.n.Q.B % V.n.F.n.Q.q j n.n.#.#X>.q #.n.n.V.2.q I #.n.#.Q.9 X n.n.n.Q.B q F.#.n.V.V.q j n.n.#.Q.>.9 #.n.n.V.2.q >.",
"#.% n.Q.n.#.V.9 } Q.} n.n.} 9 2.V.n.} V.& #.Q.#.n.#.I I V.V.n.2.n.q F.Q.n.#.n.X 2.Q.d.n.n.} q F.#Xn.#.2.  #.#Xn.n.2.} j Q.n.n.2.",
"#.B #.Q.} n.n.j B Q.n.d.n.j j n.V.V.n.V.I I +Xn.#.2.} >.2.#X} n.2.X } E.n.n.2.I I Q.n.#.n.I B 2.V.n.G #.B >.+Xn.#.#.I B V.#X} #.",
"n.n.#.-Xq 9 V.n.n.-XB : Q.} V.V.#X: B n.n.} @XB 9 F.#.n.Q.Q.- 2.n.F.V.+Xq 9 V.n.n.-X>.- F.} V.V.*X% >.F.F.2.@X>.9 F.n.V.Q.V.% #.",
"n.q s.Q.n.#.n.j d.Q.#.#.n.} X F.V.} #.F.  n.Q.n.#.#.} j Q.#.} } n.X n.V.V.} #.j } Q.} } n.D X F.Q.} } F.X #.Q.n.} #.} j n.V.} #.",
"} q d.Q.G H #.X j Q.G n.F.j B F.F.n.G 2.X j Q.F.G n.j j n.n.G n.#.X n.V.n.G n.j } Q.n.#.n.j X n.Q.G n.n.X j Q.Y.G n.j j V.n.G G ",
"#.F.#.Q.q 9 2.n.n.Q.>.% F.n.n.#.Q.q I n.n.} #X>.q #.n.} V.2.$ } n.n.#.Q.9 j #.n.} Q.B % n.#.n.#.Q.- I #.n.} Q.B q F.n.n.Q.n.% } ",
"#.} n.Q.I } n.2.n.#XI I n.} I #.Q.>.I n.} #.Q.} >.n.n.#.Q.#.2.2.n.j n.Q.2.I #.} n.Q.2.} n.#.I n.#XI } F.B n.-X} >.#.#.#.V.#.>.2.",
"#.q #.Q.F.s.n.9 j Q.n.n.n.I % Q.Q.n.n.V.1 I Q.F.F F.>.X Q.V.s.n.2.q V.Q.n.n.n.q j #Xn.F.x.>.% F.#XF.#.n.% } -Xs.F #.I X Q.n.n.n.",
"#.n.2.Q.9 B n.#.} +X2.q n.} #.n.#Xq } n.#.} >X>.B 2.#.#.V.V.: n.} n.#.Q.B j V.#.#.+X2.% F.} n.n.Q.q } n.#.I Q.>.B n.#.#.Q.V.$ n.",
"n.} n.Q.B I n.d.n.Q.>.j n.n.#.#.V.j j V.} #.+X} I n.n.#.V.V.>.2.#.} n.Q.>.I n.} n.Q.I >.F.n.#.#.Q.B } n.#.n.V.2.>.#.n.#.2.2.>.} ",
"} $ n.Q.G G n.  j Q.n.n.F.I & n.V.G n.n.% I Q.F F #.I X F.F.F n.#.% #.Q.n.G n.  I #X#.G n.j 9 F.Q.s.d.n.& I Q.s.H #.I 9 Q.n.G n.",
"#.} #.#X>.I 2.#.} oX#.9 Y.2.#.F.#X9 #.F.} D Q.} I V.} } Q.n.9 F.#.} n.F.B } 2.#.#.-Xn.  F.} } F.#X9 #.F.} } Q.} I F.} #.F.Q.q n.",
"n.n.n.Q.>.I #.n.n.Q.I 9 n.n.n.2.Q.B >.n.n.#.+Xj X n.n.n.Q.2.9 } F.n.n.Q.j j #.F.n.Q.j j n.n.#.#.#X9 I V.} n.>XB B n.n.F.Q.2.9 } ",
"#.% n.Q.G n.F.X } Q.} n.2.I q F.V.n.d.n.% } Q.n.n.} B j Q.n.s.#.2.% n.V.n.} 2.q } +X} n.#.} 9 F.Q.n.D n.% } Q.n.#.#.I 9 V.V.F.n.",
"} >.#.Q.} #.n.I >.V.n.I F.} B 2.#XB n.#.I B +Xn.} #.2.j 2.Q.I n.2.2.2.V.} n.#.} B V.n.j n.I >.#.#Xx #.2.I I +XV.} #.#.I V.n.j n.",
"n.n.V.Q.q j #.n.n.+X>.% F.#.n.V.Q.q B F.n.n.#X>.9 V.n.n.Q.V.9 #.n.n.n.#XS B 2.n.n.+XB % Q.n.F.n.#X: >.F.n.n.#XB q n.n.s.Q.2.9 2.",
"#.q n.Q.#.n.V.j } *X#.n.F.}   n.Q.n.} F.% #.Q.n.G F.I j Q.#.G #.n.$ F.Q.n.#.n.j } oX} n.n.D & n.#Xn.#.Y.% } Q.n.} n.} j Q.V.n.#.",
"} B } V.d.n.#.j I Q.d.d.F.I B n.V.n.n.n.B j Q.n.} #.j B F.n.#.n.} I } Q.d.n.n.j I Q.n.} n.I X n.Q.#.G n.B j Q.n.} #.x j Q.F.} G ",
"#.n.n.V.q 9 n.n.n.#Xj % n.D n.V.V.% j n.n.} +XB q n.n.n.Q.2.- } #.n.#.F.q 9 #.n.n.Q.B % n.} F.n.Y.- I #.n.n.Q.B 9 n.n.n.V.2.% #.",
"n.9 F.Q.} } #.>.#.Q.} } #.#.j 2.Q.d.} 2.9 n.*X} #.#.} >.Q.V.} } 2.q n.Q.n.#.2.B n.Q.} n.n.#.9 n.Q.#.} n.B } +Xd.} 2.2.I V.V.} #.",
"#.X V.Q.n.F.#.I I Q.n.n.F.I B F.Q.n.G n.9 j Q.n.n.n.B I V.^.n.n.#.B 2.Q.G F.#.j j Q.#.F.x.>.B F.#Xn.n.#.9 j Q.s.n.V.B j Q.V.n.n.",
"V.n.n.+X9 B #.n.n.-X2.% n.D n.2.#X- } Q.n.} #XB 9 n.#.#.Q.Q.% #.#.F.2.+Xq B x.n.n.+X>.% F.#.n.#.Q.% I n.n.2.>XB 9 F.#.} Q.Q.$ } ",
"n.j V.V.) } x.} #.Q.} >.#.#.} #.Q.I I F.B n.+X2.I n.#.} Q.2.I } n.} n.V.} I #.} n.Q.I } #.G j n.Q.2.I F.B n.Q.2.} #.n.} Q.2.I } ",
"} % } Q.n.G #.X j Q.n.n.F.I % F.V.n.G 2.% I Q.n.F.n.j X n.n.G n.} & #.Q.n.G n.  j Q.n.n.F.I & #.#Xs.D #.& I Q.Y.G #.j X V.n.n.n.",
"n.#.n.Q.B x F.#.n.Q.} % Y.#.n.F.Q.q } n.n.#.#XB X n.} n.Q.n.% n.} #.n.Q.B j n.#.#.#XI q F.} n.n.V.q } Q.#.} #XB X n.n.n.Q.n.% n.",
"n.} #.Q.j } #.} n.Q.I I n.G } V.#XB } F.} #.-X} I F.n.#.V.2.>.#.n.} n.Q.I I #.} n.-X>.I F.n.#.2.V.>.I n.#.n.Q.} I n.#.#.V.n.I 2.",
"} % n.Q.s.n.n.q >.#Xn.F.2.>.% n.F.G #.F.% I #Xs.n.#.j 9 Q.n.F.n.2.$ n.Q.n.n.F.q I #X#.n.F.>.9 n.#Xn.n.n.& I #XF.F #.>.9 V.n.n.} ",
"} } } Q.I #.#.#.} Q.2.9 n.} } #.V.9 d.n.} I +X2.B n.} } V.V.& n.} } } Q.B 2.V.} #.Q.V.9 V.} } #.Q.9 #.2.} I Q.#.I 2.} } 2.V.9 n.",
"n.n.V.Q.B I #.n.n.+X2.9 Q.n.#.#.+XB B Q.n.#.Q.B B #.n.n.V.V.9 } #.n.V.Q.B B n.#.F.Q.B B F.#.n.2.#XB I n.n.n.+X>.B F.n.n.Q.2.9 } ",
"#.% n.Q.n.G #.X I oX#.G F.I   F.Y.n.n.F.% } Q.n.n.n.j j Q.V.n.n.n.& n.Q.G G n.X j #Xd.n.F.I q n.Q.n.D n.% } oXG n.F.j X Q.n.Y.n.",
"} } #.Q.} #.n.I I oXn.j Y.I >.n.Q.j G #.j } Q.n.} #.j 2.Q.s.j n.#.I } Q.I n.#.I } Q.n.B Y.2.j V.#XB n.F.j j oX#.} #.} I Q.n.B n.",
"#.F.n.Q.q 9 n.n.n.+XB % F.G n.#.V.q B n.n.#.Q.B X F.n.n.V.2.f 2.#.n.#.Q.9 X n.n.n.Q.B % F.#.n.V.V.q j n.n.#.Q.>.9 #.n.n.V.2.q >.",
"#.  n.V.G #.2.B } Q.d.n.Q.} q n.V.n.} V.q } +Xn.#.#.I I V.V.n.2.n.q F.Q.n.#.n.X 2.Q.d.n.n.} q F.#Xn.#.2.  #.#Xn.n.2.} j Q.n.n.2.",
"2.I #.Q.n.n.#.B B Q.n.} n.j 9 2.Q.V.n.n.9 >.+Xn.n.#.I j V.V.} n.2.X } E.n.n.2.I I Q.n.#.n.I B 2.V.n.G #.B >.+Xn.#.#.I B V.#X} #.",
"#.n.V.+Xf 9 n.n.n.>XB % Q.n.F.Q.#X% j F.F.#.>X9 q V.n.V.Q.V.% 2.n.F.V.+Xq 9 V.n.n.-X>.- F.} V.V.*X% >.F.F.2.@X>.9 F.n.V.Q.V.% #."
};
