/* XPM */
static char *_bac728b21d6484bfb2e1244c695fda2DqRKW1nqINW8meXk[] = {
/* columns rows colors chars-per-pixel */
"64 64 125 2 ",
"   c black",
".  c #010101",
"X  c #020202",
"o  c gray1",
"O  c #040404",
"+  c gray2",
"@  c #070707",
"#  c #090909",
"$  c #0B0B0B",
"%  c #0C0C0C",
"&  c gray5",
"*  c gray6",
"=  c #111111",
"-  c #131313",
";  c #151515",
":  c #191919",
">  c gray10",
",  c #1B1B1B",
"<  c gray11",
"1  c #1D1D1D",
"2  c #1E1E1E",
"3  c gray12",
"4  c #232323",
"5  c #252525",
"6  c #272727",
"7  c gray16",
"8  c #2D2D2D",
"9  c #2F2F2F",
"0  c gray19",
"q  c #313131",
"w  c gray20",
"e  c gray21",
"r  c gray22",
"t  c #3A3A3A",
"y  c #3C3C3C",
"u  c #3E3E3E",
"i  c gray25",
"p  c #414141",
"a  c gray26",
"s  c #444444",
"d  c #464646",
"f  c #484848",
"g  c #4E4E4E",
"h  c #505050",
"j  c gray32",
"k  c #535353",
"l  c #585858",
"z  c #5A5A5A",
"x  c gray36",
"c  c #5D5D5D",
"v  c gray37",
"b  c #606060",
"n  c #626262",
"m  c #646464",
"M  c gray40",
"N  c gray42",
"B  c #6D6D6D",
"V  c #6F6F6F",
"C  c #717171",
"Z  c gray45",
"A  c #777777",
"S  c #797979",
"D  c #7B7B7B",
"F  c gray50",
"G  c #818181",
"H  c #838383",
"J  c #848484",
"K  c gray52",
"L  c gray53",
"P  c #8B8B8B",
"I  c gray55",
"U  c #8D8D8D",
"Y  c gray56",
"T  c #959595",
"R  c #979797",
"E  c gray60",
"W  c gray61",
"Q  c gray62",
"!  c #A0A0A0",
"~  c #A2A2A2",
"^  c #A4A4A4",
"/  c gray65",
"(  c #A7A7A7",
")  c gray66",
"_  c #AAAAAA",
"`  c #ACACAC",
"'  c #AEAEAE",
"]  c gray69",
"[  c #B4B4B4",
"{  c #B6B6B6",
"}  c gray72",
"|  c #BCBCBC",
" . c gray",
".. c #C0C0C0",
"X. c gray76",
"o. c #C6C6C6",
"O. c #C8C8C8",
"+. c #CACACA",
"@. c gray80",
"#. c #CDCDCD",
"$. c gray81",
"%. c gray82",
"&. c LightGray",
"*. c #D5D5D5",
"=. c #D7D7D7",
"-. c gray85",
";. c gray86",
":. c #DDDDDD",
">. c #DFDFDF",
",. c #E1E1E1",
"<. c gray89",
"1. c gray90",
"2. c #E7E7E7",
"3. c #E9E9E9",
"4. c gray92",
"5. c gray93",
"6. c #EFEFEF",
"7. c #F1F1F1",
"8. c #F3F3F3",
"9. c gray96",
"0. c gray97",
"q. c #F9F9F9",
"w. c #FBFBFB",
"e. c #FDFDFD",
"r. c white",
/* pixels */
"r.r.r.r.r.r.r.r.r.r.r.r.r.r.r.r.r.r.r.r.r.r.r.r.r.r.r.r.r.r.r.r.r.r.r.r.r.r.r.r.r.r.r.r.r.r.r.r.r.r.r.r.r.r.r.r.r.r.r.r.r.r.r.r.",
"r.r.r.r.r.r.r.r.r.r.r.r.r.r.r.r.r.r.r.r.r.r.r.r.r.r.r.r.r.r.r.r.r.r.r.r.r.r.r.r.r.r.r.r.r.r.r.r.r.r.r.r.r.r.r.r.r.r.r.r.r.r.r.r.",
"r.r.r.r.r.r.r.r.r.r.r.r.r.r.r.r.r.r.r.r.r.r.r.r.r.r.r.r.r.r.r.r.r.r.r.r.r.r.r.r.r.r.r.r.r.r.r.r.r.r.r.r.r.r.r.r.r.r.r.r.r.r.r.r.",
"r.r.r.r.r.r.r.r.r.r.r.r.r.r.r.r.r.r.r.r.r.r.r.r.r.r.r.r.r.r.r.q.c U r.r.r.r.r.r.r.r.r.r.r.r.r.r.r.r.r.r.r.r.r.r.r.r.r.r.r.r.r.r.",
"r.r.r.r.r.r.r.r.r.r.r.r.r.r.r.r.r.r.r.r.r.r.r.r.r.r.r.r.r.r.r.&.  9 r.r.r.r.r.r.r.r.r.r.r.r.r.r.r.r.r.r.r.r.r.r.r.r.r.r.r.r.r.r.",
"r.r.r.r.r.r.r.r.r.r.r.r.r.r.r.r.r.r.r.r.r.r.r.r.r.r.r.r.r.r.r.&.  9 r.r.r.r.r.r.r.r.r.r.r.r.r.r.r.r.r.r.r.r.r.r.r.r.r.r.r.r.r.r.",
"r.r.r.r.r.r.r.r.r.r.r.r.r.r.r.r.r.r.r.r.r.r.r.r.r.r.r.r.r.r.r.&.  9 r.r.r.r.r.r.r.r.r.r.r.r.r.r.r.r.r.r.r.r.r.r.r.r.r.r.r.r.r.r.",
"r.r.r.r.r.r.r.r.r.r.r.r.r.r.r.r.r.r.r.r.r.r.r.r.r.r.r.r.r.r.r.&.  9 r.r.r.r.r.r.r.r.r.r.r.r.r.r.r.r.r.r.r.r.r.r.r.r.r.r.r.r.r.r.",
"r.r.r.r.r.r.r.r.r.r.r.r.r.r.r.r.r.r.r.r.r.r.r.r.r.r.r.r.r.r.r.*.  w r.r.r.r.r.r.r.r.r.r.r.r.r.r.r.r.r.r.r.r.r.r.r.r.r.r.r.r.r.r.",
"r.r.r.r.r.r.r.r.r.r.r.r.r.r.r.r.r.r.r.r.r.r.r.r.r.r.r.r.r.r.r.&.  9 r.r.r.r.r.r.r.r.r.r.r.r.r.r.r.r.r.r.r.r.r.r.r.r.r.r.r.r.r.r.",
"r.r.r.r.r.r.r.r.r.r.r.r.r.r.r.r.r.r.r.r.r.r.r.r.r.r.r.r.r.r.r.&.  9 r.r.r.r.r.r.r.r.r.r.r.r.r.r.r.r.r.r.r.r.r.r.r.r.r.r.r.r.r.r.",
"r.r.r.r.r.r.r.r.r.r.r.r.r.r.r.r.r.r.r.r.r.r.r.r.r.r.r.r.r.r.r.&.  9 r.r.r.r.r.r.r.r.r.r.r.r.r.r.r.r.r.r.r.r.r.r.r.r.r.r.r.r.r.r.",
"r.r.r.r.r.r.r.r.r.r.r.r.r.r.r.q.( ! ! ! ! ! ! ! ! ! ! ! ! ! ! L   1 ! ! ! ! ! ! ! ! ! ! [ [ [ &.r.r.r.r.r.r.r.r.r.r.r.r.r.r.r.r.",
"r.r.r.r.r.r.r.r.r.r.r.r.r.r.r.(                                                                 *.r.r.r.r.r.r.r.r.r.r.r.r.r.r.r.",
"r.r.r.r.r.r.r.r.r.r.r.r.r.r.r.5.Z n n n n m n n n n n m n n n k   = n n n n n n n n n c k g g a 3.r.r.r.r.r.r.r.r.r.r.r.r.r.r.r.",
"r.r.r.r.r.r.r.r.r.r.r.r.r.r.r.r.r.r.r.r.r.r.r.r.r.r.r.r.r.r.r.&.  9 r.r.r.r.r.r.r.r.r.r.r.r.r.r.r.r.r.r.r.r.r.r.r.r.r.r.r.r.r.r.",
"r.r.r.r.r.r.r.r.r.r.r.r.r.r.r.r.r.r.r.r.r.r.r.r.r.r.r.r.r.r.r.&.  9 r.r.r.r.r.r.r.r.r.r.r.r.r.r.r.r.r.r.r.r.r.r.r.r.r.r.r.r.r.r.",
"r.r.r.r.r.r.r.r.r.r.r.r.r.r.r.r.r.r.r.r.r.r.r.r.r.r.r.r.r.r.r.*.  w r.r.r.r.r.r.r.r.r.r.r.r.r.r.r.r.r.r.r.r.r.r.r.r.r.r.r.r.r.r.",
"r.r.r.r.r.r.r.r.r.r.r.r.r.r.r.r.r.r.r.r.r.r.r.r.r.r.r.r.r.r.r.O.  w r.r.r.r.r.r.r.r.r.r.r.r.r.r.r.r.r.r.r.r.r.r.r.r.r.r.r.r.r.r.",
"r.r.r.r.r.r.r.r.r.r.r.r.r.r.r.r.r.r.r.r.r.r.r.r.r.r.r.r.r.r.r.[   s r.r.r.r.r.r.r.r.r.r.r.r.r.r.r.r.r.r.r.r.r.r.r.r.r.r.r.r.r.r.",
"r.r.r.r.r.r.r.r.r.r.r.r.r.r.r.r.r.r.r.r.r.r.r.r.r.r.r.r.r.r.r.R   m r.r.r.r.r.r.r.r.r.r.r.r.r.r.r.r.r.r.r.r.r.r.r.r.r.r.r.r.r.r.",
"r.r.r.r.r.r.r.r.r.r.r.r.r.r.r.r.r.r.r.r.r.r.r.r.r.r.r.r.r.r.r.U   B r.r.r.r.r.r.r.r.r.r.r.r.r.r.r.r.r.r.r.r.r.r.r.r.r.r.r.r.r.r.",
"r.r.r.r.r.r.r.r.r.r.r.r.r.r.r.r.r.r.r.r.r.r.r.r.r.r.r.r.r.r.r.Z   L r.r.r.r.r.r.r.r.r.r.r.r.r.r.r.r.r.r.r.r.r.r.r.r.r.r.r.r.r.r.",
"r.r.r.r.r.r.r.r.r.r.r.r.r.r.r.r.r.n ; A ' X.$.<.7.7.7.7.7.7.7.c   U 7.7.7.7.7.5.&._ G B c g k t _ r.r.r.r.r.r.r.r.r.r.r.r.r.r.r.",
"r.r.r.r.r.r.r.r.r.r.r.r.r.r.r.r.q.$                                                             B r.r.r.r.r.r.r.r.r.r.r.r.r.r.r.",
"r.r.r.r.r.r.r.r.r.r.r.r.r.r.r.r.-.  1 S g y 9 , @ = = = = = = @   * = = = = = = 9 k A U ! [ U   Z r.r.r.r.r.r.r.r.r.r.r.r.r.r.r.",
"r.r.r.r.r.r.r.r.r.r.r.r.r.r.r.r. .  t r.r.r.r.r.r.r.r.r.r.r.q.$   3.r.r.r.r.r.r.r.r.r.r.r.r.B   U r.r.r.r.r.r.r.r.r.r.r.r.r.r.r.",
"r.r.r.r.r.r.r.r.r.r.r.r.r.r.r.r. .  s r.r.r.r.r.r.r.r.r.r.r.2.  * r.r.r.r.r.r.r.r.r.r.r.r.r.s   [ r.r.r.r.r.r.r.r.r.r.r.r.r.r.r.",
"r.r.r.r.r.r.r.r.r.r.r.r.r.r.r.r. .  s r.r.r.r.r.r.r.r.r.r.r.X.  w r.r.r.r.r.r.r.r.r.r.r.r.r.4   -.r.r.r.r.r.r.r.r.r.r.r.r.r.r.r.",
"r.r.r.r.r.r.r.r.r.r.r.r.r.r.r.r.X.  s r.r.r.r.r.r.r.r.r.r.r.G   N r.r.r.r.r.r.r.r.r.r.r.r.r.$   7.r.r.r.r.r.r.r.r.r.r.r.r.r.r.r.",
"r.r.r.r.r.r.r.r.r.r.r.r.r.r.r.r. .  s r.r.r.r.r.r.r.r.r.r.r.n   E r.r.r.r.r.r.r.r.r.r.r.r.7.@ $ r.r.r.r.r.r.r.r.r.r.r.r.r.r.r.r.",
"r.r.r.r.r.r.r.r.r.r.r.r.r.r.r.r. .  s r.r.r.r.r.r.r.r.r.r.r.a    .r.r.r.r.r.r.r.r.r.r.r.r.7.  = r.r.r.r.r.r.r.r.r.r.r.r.r.r.r.r.",
"r.r.r.r.r.r.r.r.r.r.r.r.r.r.r.r.*.  6 r.r.r.r.r.r.r.r.r.r.r.6   $.7.7.7.7.q.r.r.r.r.r.7.>. .  6 r.r.r.r.r.r.r.r.r.r.r.r.r.r.r.r.",
"r.r.r.r.r.r.r.r.r.r.r.r.r.r.r.r.2.  * n n n m n g g g y t 6     $         = 6 6 e t t =       a r.r.r.r.r.r.r.r.r.r.r.r.r.r.r.r.",
"r.r.r.r.r.r.r.r.r.r.r.r.r.r.r.r.2.                                = = = =               6 1   s r.r.r.r.r.r.r.r.r.r.r.r.r.r.r.r.",
"r.r.r.r.r.r.r.r.r.r.r.r.r.r.r.r.3.  = ! ! ! ! ! [ [ [ X.O. .  1 2.r.r.r.r.<.>.>.O.O.O.<.0. .  s r.r.r.r.r.r.r.r.r.r.r.r.r.r.r.r.",
"r.r.r.r.r.r.r.r.r.r.r.r.r.r.r.r.2.  , r.r.r.r.r.r.r.r.r.r.O.  t r.r.r.r.r.r.r.r.r.r.r.r.r. .  y r.r.r.r.r.r.r.r.r.r.r.r.r.r.r.r.",
"r.r.r.r.r.r.r.r.r.r.r.r.r.r.r.r.2.  , r.r.r.r.r.r.r.r.r.r. .  s r.r.r.r.r.r.r.r.r.r.r.r.r.U   B r.r.r.r.r.r.r.r.r.r.r.r.r.r.r.r.",
"r.r.r.r.r.r.r.r.r.r.r.r.r.r.r.r.2.  , r.r.r.r.r.r.r.r.r.r. .  s r.r.r.r.r.r.r.r.r.r.r.r.r.A   S r.r.r.r.r.r.r.r.r.r.r.r.r.r.r.r.",
"r.r.r.r.r.r.r.r.r.r.r.r.r.r.r.r.3.  1 r.r.r.r.r.r.r.r.r.r. .  s r.r.r.r.r.r.r.r.r.r.r.r.r.s   ( r.r.r.r.r.r.r.r.r.r.r.r.r.r.r.r.",
"r.r.r.r.r.r.r.r.r.r.r.r.r.r.r.r.2.  , r.r.r.r.r.r.r.r.r.r. .  s r.r.r.r.r.r.r.r.r.r.r.r.r.7   &.r.r.r.r.r.r.r.r.r.r.r.r.r.r.r.r.",
"r.r.r.r.r.r.r.r.r.r.r.r.r.r.r.r.2.  , r.r.r.r.r.r.r.r.r.r. .  a 7.7.7.7.r.r.r.r.r.r.r.r.>.  @ 0.r.r.r.r.r.r.r.r.r.r.r.r.r.r.r.r.",
"r.r.r.r.r.r.r.r.r.r.r.r.r.r.r.r.2.  , *.>.>.>.X.] R G m l w             = 6 6 6 6 6 6 6 6   f r.r.r.r.r.r.r.r.r.r.r.r.r.r.r.r.r.",
"r.r.r.r.r.r.r.r.r.r.r.r.r.r.r.r.r.G a                           * = = @                   , *.r.r.r.r.r.r.r.r.r.r.r.r.r.r.r.r.r.",
"r.r.r.r.r.r.r.r.r.r.r.r.r.r.r.r.r.r.L 6 6 6 6 y g n F R ! L     , &.r.q.2.>.>.>.>.>.>.>.>.2.r.r.r.r.r.r.r.r.r.r.r.r.r.r.r.r.r.r.",
"r.r.r.r.r.r.r.r.r.r.r.r.r.r.r.r.r.r.r.r.r.r.r.r.r.r.r.r.&.*       , 3.r.r.r.r.r.r.r.r.r.r.r.r.r.r.r.r.r.r.r.r.r.r.r.r.r.r.r.r.r.",
"r.r.r.r.r.r.r.r.r.r.r.r.r.r.r.r.r.r.r.r.r.r.r.r.r.r.r.-.*       y   w 7.r.r.r.r.r.r.r.r.r.r.r.r.r.r.r.r.r.r.r.r.r.r.r.r.r.r.r.r.",
"r.r.r.r.r.r.r.r.r.r.r.r.r.r.r.r.r.r.r.r.r.r.r.r.r.r.2.4   k ;   $.4   l q.r.r.r.r.r.r.r.r.r.r.r.r.r.r.r.r.r.r.r.r.r.r.r.r.r.r.r.",
"r.r.r.r.r.r.r.r.r.r.r.r.r.r.r.r.r.r.r.r.r.r.r.r.r.3.w   w 3.7   &.&.*   B r.r.r.r.r.r.r.r.r.r.r.r.r.r.r.r.r.r.r.r.r.r.r.r.r.r.r.",
"r.r.r.r.r.r.r.r.r.r.r.r.r.r.r.r.r.r.r.r.r.r.r.r.-.1   1 2.r.t   O.r.o.@   L r.r.r.r.r.r.r.r.r.r.r.r.r.r.r.r.r.r.r.r.r.r.r.r.r.r.",
"r.r.r.r.r.r.r.r.r.r.r.r.r.r.r.r.r.r.r.r.r.r.r.[ $   w <.r.r.k   [ r.r.[     ( r.r.r.r.r.r.r.r.r.r.r.r.r.r.r.r.r.r.r.r.r.r.r.r.r.",
"r.r.r.r.r.r.r.r.r.r.r.r.r.r.r.r.r.r.r.r.r.r.Q     c 5.r.r.r.n   ! r.r.r.Q     [ r.r.r.r.r.r.r.r.r.r.r.r.r.r.r.r.r.r.r.r.r.r.r.r.",
"r.r.r.r.r.r.r.r.r.r.r.r.r.r.r.r.r.r.r.r.q.S     G q.r.r.r.r.B   R r.r.r.r.S     } r.r.r.r.r.r.r.r.r.r.r.r.r.r.r.r.r.r.r.r.r.r.r.",
"r.r.r.r.r.r.r.r.r.r.r.r.r.r.r.r.r.r.r.2.y     Q r.r.r.r.r.r.A   P r.r.r.r.r.B     ] r.r.r.r.r.r.r.r.r.r.r.r.r.r.r.r.r.r.r.r.r.r.",
"r.r.r.r.r.r.r.r.r.r.r.r.r.r.r.r.r.r.>.4   ; X.r.r.r.r.r.r.r.G   A r.r.r.r.r.q.S     R r.r.r.r.r.r.r.r.r.r.r.r.r.r.r.r.r.r.r.r.r.",
"r.r.r.r.r.r.r.r.r.r.r.r.r.r.r.r.r.$.,   w <.r.r.r.r.r.r.r.r.R   B r.r.r.r.r.r.q.U     S 0.r.r.r.r.r.r.r.r.r.r.r.r.r.r.r.r.r.r.r.",
"r.r.r.r.r.r.r.r.r.r.r.r.r.r.r.r.[ $   a 3.r.r.r.r.r.r.r.r.r.R   n r.r.r.r.r.r.r.r.U     t o.r.r.r.r.r.r.r.r.r.r.r.r.r.r.r.r.r.r.",
"r.r.r.r.r.r.r.r.r.r.r.r.r.r.q.U     m 0.r.r.r.r.r.r.r.r.r.r._   l r.r.r.r.r.r.r.r.r.O.1     f  .&.r.r.r.r.r.r.r.r.r.r.r.r.r.r.r.",
"r.r.r.r.r.r.r.r.r.r.r.r.r.<.k     U r.r.r.r.r.r.r.r.r.r.r.r.'   l r.r.r.r.r.r.r.r.r.r.5.A @       o.r.r.r.r.r.r.r.r.r.r.r.r.r.r.",
"r.r.r.r.r.r.r.r.r.r.r.r.r.Q   * ( r.r.r.r.r.r.r.r.r.r.r.r.r.[   s r.r.r.r.r.r.r.r.r.r.r.r.3.L 7 @ o.r.r.r.r.r.r.r.r.r.r.r.r.r.r.",
"r.r.r.r.r.r.r.r.r.r.r.r.r.0.! 2.r.r.r.r.r.r.r.r.r.r.r.r.r.r. .  s r.r.r.r.r.r.r.r.r.r.r.r.r.r.r.7.r.r.r.r.r.r.r.r.r.r.r.r.r.r.r.",
"r.r.r.r.r.r.r.r.r.r.r.r.r.r.r.r.r.r.r.r.r.r.r.r.r.r.r.r.r.r.*.$ m r.r.r.r.r.r.r.r.r.r.r.r.r.r.r.r.r.r.r.r.r.r.r.r.r.r.r.r.r.r.r.",
"r.r.r.r.r.r.r.r.r.r.r.r.r.r.r.r.r.r.r.r.r.r.r.r.r.r.r.r.r.r.r.r.r.r.r.r.r.r.r.r.r.r.r.r.r.r.r.r.r.r.r.r.r.r.r.r.r.r.r.r.r.r.r.r.",
"r.r.r.r.r.r.r.r.r.r.r.r.r.r.r.r.r.r.r.r.r.r.r.r.r.r.r.r.r.r.r.r.r.r.r.r.r.r.r.r.r.r.r.r.r.r.r.r.r.r.r.r.r.r.r.r.r.r.r.r.r.r.r.r."
};
