/* XPM */
static char *_a60da2e96ea48cf9313e573cadf85c0Rs21ZCcSkoYmjHBZ[] = {
/* columns rows colors chars-per-pixel */
"64 64 118 2 ",
"   c black",
".  c #020202",
"X  c gray1",
"o  c gray2",
"O  c #070707",
"+  c #090909",
"@  c #0B0B0B",
"#  c gray5",
"$  c gray6",
"%  c #111111",
"&  c gray7",
"*  c #131313",
"=  c #151515",
"-  c #191919",
";  c #1B1B1B",
":  c #1D1D1D",
">  c gray12",
",  c #232323",
"<  c gray14",
"1  c #252525",
"2  c gray17",
"3  c #2F2F2F",
"4  c #313131",
"5  c gray20",
"6  c #353535",
"7  c #3A3A3A",
"8  c #3C3C3C",
"9  c #3F3F3F",
"0  c gray25",
"q  c gray26",
"w  c #444444",
"e  c #464646",
"r  c #484848",
"t  c gray29",
"y  c #4C4C4C",
"u  c #4E4E4E",
"i  c #505050",
"p  c gray33",
"a  c #565656",
"s  c #585858",
"d  c #5A5A5A",
"f  c gray36",
"g  c #5D5D5D",
"h  c gray37",
"j  c #606060",
"k  c #626262",
"l  c #646464",
"z  c gray40",
"x  c #6D6D6D",
"c  c #6F6F6F",
"v  c #717171",
"b  c gray45",
"n  c gray46",
"m  c #777777",
"M  c #797979",
"N  c #7B7B7B",
"B  c gray49",
"V  c gray50",
"C  c #818181",
"Z  c #838383",
"A  c gray52",
"S  c gray53",
"D  c #8B8B8B",
"F  c gray55",
"G  c #8D8D8D",
"H  c #8E8E8E",
"J  c gray56",
"K  c #939393",
"L  c #959595",
"P  c #979797",
"I  c gray60",
"U  c #9A9A9A",
"Y  c gray62",
"T  c #A0A0A0",
"R  c #A2A2A2",
"E  c #A4A4A4",
"W  c gray65",
"Q  c gray66",
"!  c #AAAAAA",
"~  c #ACACAC",
"^  c gray68",
"/  c #AEAEAE",
"(  c gray69",
")  c #B2B2B2",
"_  c #B4B4B4",
"`  c #B6B6B6",
"'  c gray72",
"]  c gray",
"[  c #C0C0C0",
"{  c gray76",
"}  c gray77",
"|  c #C6C6C6",
" . c #C8C8C8",
".. c #CACACA",
"X. c gray82",
"o. c LightGray",
"O. c #D5D5D5",
"+. c #D7D7D7",
"@. c gray85",
"#. c gray86",
"$. c #DDDDDD",
"%. c #DFDFDF",
"&. c #E1E1E1",
"*. c gray89",
"=. c #E7E7E7",
"-. c gray91",
";. c #E9E9E9",
":. c gray92",
">. c gray93",
",. c #EFEFEF",
"<. c #F1F1F1",
"1. c #F3F3F3",
"2. c gray96",
"3. c gray97",
"4. c #F9F9F9",
"5. c #FBFBFB",
"6. c #FDFDFD",
"7. c white",
/* pixels */
"7.7.7.7.7.7.7.7.7.7.7.7.7.7.7.7.7.7.7.7.7.7.7.7.7.7.7.7.7.7.7.7.7.7.7.7.7.7.7.7.7.7.7.7.7.7.7.7.7.7.7.7.7.7.7.7.7.7.7.7.7.7.7.7.",
"7.7.7.7.7.7.7.7.7.7.7.7.7.7.7.7.7.7.7.7.7.7.7.7.7.7.7.7.7.7.7.7.7.7.7.7.7.7.7.7.7.7.7.7.7.7.7.7.7.7.7.7.7.7.7.7.7.7.7.7.7.7.7.7.",
"7.7.7.7.7.7.7.7.7.7.7.7.7.7.7.7.7.7.7.7.7.7.7.7.7.7.7.7.7.7.7.7.7.7.7.7.7.7.7.7.7.7.7.7.7.7.7.7.7.7.7.7.7.7.7.7.7.7.7.7.7.7.7.7.",
"7.7.7.7.7.7.7.7.7.7.7.7.7.7.7.7.7.7.7.7.7.7.7.7.7.7.7.7.7.7.7.7.7.7.7.7.7.7.7.7.7.7.7.7.7.7.7.7.7.7.7.7.7.7.7.7.7.7.7.7.7.7.7.7.",
"7.7.7.7.7.7.7.7.7.7.7.7.7.7.7.7.7.7.7.7.7.7.7.7.7.7.7.7.7.7.7.7.7.7.7.7.7.7.7.7.7.7.7.7.7.7.7.7.7.7.7.7.7.7.7.7.7.7.7.7.7.7.7.7.",
"7.7.7.7.7.7.7.7.7.7.7.7.7.7.7.7.7.7.7.7.7.7.7.7.7.7.7.7.7.7.7.7.7.7.7.7.7.7.7.7.7.7.7.7.7.7.7.7.7.7.7.7.7.7.7.7.7.7.7.7.7.7.7.7.",
"7.7.7.7.7.7.7.7.7.7.7.7.7.7.7.7.7.7.7.7.7.7.7.7.7.7.7.7.7.7.7.7.7.7.7.7.7.7.7.7.7.7.7.7.7.7.7.7.7.7.7.7.7.7.7.7.7.7.7.7.7.7.7.7.",
"7.7.7.7.7.7.7.7.7.7.7.7.7.7.7.7.7.7.7.7.7.7.7.7.7.7.7.7.7.7.7.7.7.7.7.7.7.7.7.7.7.7.7.7.7.7.7.7.7.7.7.7.7.7.7.7.7.7.7.7.7.7.7.7.",
"7.7.7.7.7.7.7.7.7.7.7.7.7.7.7.7.7.7.7.7.7.7.7.7.7.7.7.7.7.7.7.7.7.7.7.7.7.7.7.7.7.7.7.7.7.7.7.7.7.7.7.7.7.7.7.7.7.7.7.7.7.7.7.7.",
"7.7.7.7.7.7.7.7.7.7.7.7.7.7.7.7.7.7.7.7.7.7.7.7.7.7.7.7.7.7.7.7.7.^ u ;.7.7.7.7.7.7.7.7.7.7.7.7.7.7.7.7.7.7.7.7.7.7.7.7.7.7.7.7.",
"7.7.7.7.7.7.7.7.7.7.7.7.7.7.7.7.7.7.7.7.7.7.7.7.7.7.7.7.7.7.7.7.7.d   ! 7.7.7.7.7.7.7.7.7.7.7.7.7.7.7.7.7.7.7.7.7.7.7.7.7.7.7.7.",
"7.7.7.7.7.7.7.7.7.7.7.7.7.7.7.7.7.7.7.7.7.7.7.7.7.7.7.7.7.7.7.7.7.d   ^ 7.7.7.7.7.7.7.7.7.7.7.7.7.7.7.7.7.7.7.7.7.7.7.7.7.7.7.7.",
"7.7.7.7.7.7.7.7.7.7.7.7.7.7.7.7.7.7.7.7.7.7.7.7.7.7.7.7.7.7.7.7.7.a   ! 7.7.7.7.7.7.7.7.7.7.7.7.7.7.7.7.7.7.7.7.7.7.7.7.7.7.7.7.",
"7.7.7.7.7.7.7.7.7.7.7.7.7.7.7.7.7.7.7.7.7.) F 7.7.7.7.7.7.7.7.7.7.d   ! 7.7.7.7.7.7.7.7.7.7.7.7.7.7.7.7.7.7.7.7.7.7.7.7.7.7.7.7.",
"7.7.7.7.7.7.7.7.7.7.7.7.7.7.7.7.7.7.7.7.7.3   o.7.7.7.7.7.7.7.7.7.d   ! 7.7.7.7.7.7.7.7.7.7.7.7.7.7.7.7.7.7.7.7.7.7.7.7.7.7.7.7.",
"7.7.7.7.7.7.7.7.7.7.7.7.7.7.7.7.7.7.7.7.7.3   o.7.7.7.7.7.7.7.7.7.a   ! 7.7.7.7.7.7.7.7.7.7.7.7.7.7.7.7.7.7.7.7.7.7.7.7.7.7.7.7.",
"7.7.7.7.7.7.7.7.7.7.7.7.7.7.7.7.7.7.7.7.7.3   o.7.7.7.7.7.7.7.7.7.a   ! 7.7.7.7.7.7.7.7.7.7.7.7.7.7.7.7.7.7.7.7.7.7.7.7.7.7.7.7.",
"7.7.7.7.7.7.7.7.7.7.7.7.7.7.7.7.7.7.7.7.7.4   O.7.7.7.7.7.7.7.7.7.d   ! 7.7.7.7.7.7.7.7.7.7.7.7.7.7.7.7.7.7.7.7.7.7.7.7.7.7.7.7.",
"7.7.7.7.7.7.7.7.7.7.7.7.7.7.7.7.7.7.7.7.7.3   o.7.7.7.7.7.7.7.7.7.d   ^ 7.7.7.7.7.7.7.7.7.7.7.7.7.7.7.7.7.7.7.7.7.7.7.7.7.7.7.7.",
"7.7.7.7.7.7.7.7.7.7.7.7.7.7.7.7.7.7.7.7.7.3   o.7.7.7.7.7.7.7.7.7.d   ! 7.7.7.7.7.7.7.7.7.7.7.7.7.7.7.7.7.7.7.7.7.7.7.7.7.7.7.7.",
"7.7.7.7.7.7.7.7.7.7.7.7.7.7.7.7.7.7.7.7.7.3   o.7.7.7.7.7.7.7.7.7.d   ! 7.7.7.7.7.7.7.7.7.7.7.7.7.7.7.7.7.7.7.7.7.7.7.7.7.7.7.7.",
"7.7.7.7.7.7.7.7.7.7.7.7.7.7.7.7.7.7.7.7.7.3   o.7.7.7.7.7.7.7.7.7.a   ! 7.7.7.7.7.7.7.7.7.7.7.7.#.f k 7.7.7.7.7.7.7.7.7.7.7.7.7.",
"7.7.7.7.7.7.7.7.7.7.7.7.7.7.7.7.7.7.7.7.7.:   %.7.7.7.7.7.7.7.7.7.d   ! 7.7.7.7.7.7.7.7.7.7.o.u     $ 7.7.7.7.7.7.7.7.7.7.7.7.7.",
"7.7.7.7.7.7.7.7.7.7.7.7.7.7.7.7.7.7.7.7.5.+   <.7.7.7.7.7.7.7.7.7.7   ] 7.7.7.7.7.7.7.7.O.a     O k %.7.7.7.7.7.7.7.7.7.7.7.7.7.",
"7.7.7.7.7.7.7.7.7.7.7.7.7.7.7.7.7.7.7.7.;.  % 7.7.7.7.7.7.7.7.7.7.-   =.7.7.7.7.7.7.7.F O   O n ;.7.7.7.7.7.7.7.7.7.7.7.7.7.7.7.",
"7.7.7.7.7.7.7.7.7.7.7.7.7.7.7.7.7.7.7.7.O.  1 7.7.7.7.7.7.7.7.7.<.  + 2.7.7.7.7.7.5.x     x *.7.7.7.7.7.7.7.7.7.7.7.7.7.7.7.7.7.",
"7.7.7.7.7.7.7.7.7.7.7.7.7.7.7.7.7.7.7.7. .  7 7.7.7.7.7.7.7.7.7.O.  1 7.7.7.7.7.<.d   O ^ 7.7.7.7.7.7.7.7.7.7.7.7.7.7.7.7.7.7.7.",
"7.7.7.7.7.7.7.7.7.7.7.7.7.7.7.7.7.7.7.7.]   w 7.7.7.7.7.7.7.7.7.]   w 7.7.7.7. .:   $ [ 7.7.7.7.7.7.7.7.7.7.7.7.7.7.7.7.7.7.7.7.",
"7.7.7.7.7.7.7.K n n n M n M n M n M n K _   i 7.7.7.7.7.7.7.7.7.]   w 7.7.5.F O   4 #.7.7.7.7.7.7.7.7.7.7.7.7.7.7.7.7.7.7.7.7.7.",
"7.7.7.7.7.7.O.                          F   k 7.7.7.7.7.7.7.7.7.[   w 7.o.0     M 2.7.7.7.7.7.7.7.7.7.7.7.7.7.7.7.7.7.7.7.7.7.7.",
"7.7.7.7.7.7.7.I F D D D D D D D F F F E S   n 7.7.7.7.7.7.7.7.7.]   9 M     = _ 7.7.7.7.7.7.7.7.7.7.7.7.7.7.7.7.7.7.7.7.7.7.7.7.",
"7.7.7.7.7.7.7.7.7.7.7.7.7.7.7.7.7.7.7.7.x   L 7.7.7.7.7.7.7.7.7.[   %   O x =.7.7.7.7.7.7.7.7.7.7.7.7.7.7.7.7.7.7.7.7.7.7.7.7.7.",
"7.7.7.7.7.7.7.7.7.7.7.7.7.7.7.7.7.7.7.7.v   L 7.7.7.7.7.7.7.7.7.]   1 t [ 7.7.7.7.7.7.7.7.7.7.7.7.7.7.7.7.7.7.7.7.7.7.7.7.7.7.7.",
"7.7.7.7.7.7.7.7.7.7.7.7.7.7.7.7.7.7.7.7.x   L 7.7.7.7.7.7.7.7.7.]   w 7.7.7.7.7.7.7.7.7.7.7.7.7.7.7.7.7.7.7.7.7.7.7.7.7.7.7.7.7.",
"7.7.7.7.7.7.7.7.7.7.7.7.7.7.7.7.7.7.7.7.x   L 7.7.7.7.7.7.7.7.7.]   w 7.7.7.7.7.7.7.7.7.7.7.7.7.7.7.7.7.7.7.7.7.7.7.7.7.7.7.7.7.",
"7.7.7.7.7.7.7.7.7.7.7.7.7.7.7.7.7.7.7.7.d   ! 7.7.7.7.7.7.7.7.7.]   0 7.7.7.7.7.7.7.7.7.7.7.7.7.7.7.7.7.7.7.7.7.7.7.7.7.7.7.7.7.",
"7.7.7.7.7.7.7.7.7.7.7.7.7.7.7.7.7.7.7.7.7   | 7.7.7.7.7.7.7.7.7.o.  3 7.7.7.7.7.7.7.7.7.7.7.7.7.7.7.7.7.7.7.7.7.7.7.7.7.7.7.7.7.",
"7.7.7.7.7.7.7.7.7.7.7.7.7.7.7.7.7.7.7.7.1   O.7.7.7.7.7.7.7.7.7.o.  3 7.7.7.7.7.7.7.7.7.7.7.7.7.7.7.7.7.7.7.7.7.7.7.7.7.7.7.7.7.",
"7.7.7.7.7.7.7.7.7.7.7.7.7.7.7.7.7.7.7.7.:   =.7.7.7.7.7.7.7.7.7.o.  3 7.7.7.7.7.7.7.7.7.7.7.7.7.7.7.7.7.7.7.7.7.7.7.7.7.7.7.7.7.",
"7.7.7.7.7.7.7.7.7.7.7.7.7.7.7.7.7.7.7.<.%   =.7.7.7.7.7.7.7.7.7.o.  3 7.7.7.7.7.7.7.7.7.7.7.7.7.7.7.7.7.7.7.7.7.7.7.7.7.7.7.7.7.",
"7.7.7.7.7.7.7.7.7.7.7.7.7.7.7.7.7.7.7.^   7 7.7.7.7.7.7.7.7.7.7.O.  4 7.7.7.7.7.7.7.7.7.7.7.7.7.7.7.7.7.7.7.7.7.7.7.7.7.7.7.7.7.",
"7.7.7.7.7.7.7.7.7.7.7.7.7.7.7.7.7.7.7.S   n 7.7.7.7.7.7.7.7.7.7.O.  4 7.7.7.7.7.7.7.7.7.7.7.7.7.7.7.7.7.7.7.7.7.7.7.7.7.7.7.7.7.",
"7.7.7.7.7.7.7.7.7.7.7.7.7.7.7.7.7.7.7.C   C 7.7.7.7.7.7.7.7.7.7.E   a 7.7.7.7.7.7.7.7.7.7.7.7.7.7.7.7.7.7.7.7.7.7.7.7.7.7.7.7.7.",
"7.7.7.7.7.7.7.7.7.7.7.7.7.7.7.7.7.7.7.C   C 7.7.7.7.7.7.7.7.7.7.B   C 7.7.7.7.7.7.7.7.7.7.7.7.7.7.7.7.7.7.7.7.7.7.7.7.7.7.7.7.7.",
"7.7.7.7.7.7.7.7.7.7.7.7.7.7.7.7.7.7.7.k   I 7.7.7.7.;.*.7.7.7.7.k   L 7.7.7.7.7.7.7.7.7.7.7.7.7.7.7.7.7.7.7.7.7.7.7.7.7.7.7.7.7.",
"7.7.7.7.7.7.7.7.7.7.7.7.7.7.7.7.7.7.7.a   ! 7.7.5.) ,   *.7.7.7.d   ! 7.7.7.7.7.7.7.7.7.7.7.7.7.7.7.7.7.7.R v 5.7.7.7.7.7.7.7.7.",
"7.7.7.7.7.7.7.7.7.7.7.7.7.7.7.7.7.7.7.d   ! 7.#.t     6 ;.7.7.7.a   ! 7.7.7.7.7.7.7.7.7.7.7.7.7.7.7.7.7.7.3   o.7.7.7.7.7.7.7.7.",
"7.7.7.7.7.7.7.7.7.7.7.7.7.7.7.7.7.7.7.u   ^ F     = K 2.7.7.7.7.d   ! 7.7.7.7.7.7.7.7.7.7.7.7.7.7.7.7.7.7.4   | 7.7.7.7.7.7.7.7.",
"7.7.7.7.7.7.7.7.7.7.7.7.7.7.7.7.7.7.7.3   i     f ;.7.7.7.7.7.7.d   ! 7.7.7.7.7.7.7.7.7.7.7.7.7.7.7.7.7.7.w   ] 7.7.7.7.7.7.7.7.",
"7.7.7.7.7.7.7.7.7.7.7.7.7.7.7.7.7.7.7.6     O E 7.7.7.7.7.7.7.7.a   ! 7.7.7.7.7.7.7.7.7.7.7.7.7.7.7.7.7.7.w   ] 7.7.7.7.7.7.7.7.",
"7.7.7.7.7.7.7.7.7.7.7.7.7.7.7.7.7.7.*.2   : #.7.7.7.7.7.7.7.7.7.d   E 7.7.7.7.7.7.7.7.7.7.7.7.7.7.7.7.7.7.7    .7.7.7.7.7.7.7.7.",
"7.7.7.7.7.7.7.7.7.7.7.7.7.7.7.7.7.^ $   , *.7.7.7.7.7.7.7.7.7.7.C   C 7.7.7.7.7.7.7.7.7.7.7.7.7.7.7.7.7.5.O O ;.7.7.7.7.7.7.7.7.",
"7.7.7.7.7.7.7.7.7.7.7.7.7.7.7.=.a     0 *.7.7.7.7.7.7.7.7.7.7.7.R   d 5.7.7.7.7.7.7.2.>.O.] _ I v a 9 4 %   - 7.7.7.7.7.7.7.7.7.",
"7.7.7.7.7.7.7.7.7.7.7.7.7.7.E $   + F 7.7.7.7.7.7.7.7.7.7.7.7.7.#.    = v D B d u ,                       + x 7.7.7.7.7.7.7.7.7.",
"7.7.7.7.7.7.7.7.7.7.7.7.2.n     t %.7.7.7.7.7.7.7.7.7.7.7.7.7.7.7.F :               + % 4 7 u k S ! ]  .=.7.7.7.7.7.7.7.7.7.7.7.",
"7.7.7.7.7.7.7.7.7.7.7.>.u   O Y 7.7.7.7.7.7.7.7.7.7.7.7.7.7.7.7.7.7.7.' z M B E _ ^ 2.7.7.7.7.7.7.7.7.7.7.7.7.7.7.7.7.7.7.7.7.7.",
"7.7.7.7.7.7.7.7.7.7.*.4   %  .7.7.7.7.7.7.7.7.7.7.7.7.7.7.7.7.7.7.7.7.7.7.7.7.7.7.7.7.7.7.7.7.7.7.7.7.7.7.7.7.7.7.7.7.7.7.7.7.7.",
"7.7.7.7.7.7.7.7.5.Y +   : %.7.7.7.7.7.7.7.7.7.7.7.7.7.7.7.7.7.7.7.7.7.7.7.7.7.7.7.7.7.7.7.7.7.7.7.7.7.7.7.7.7.7.7.7.7.7.7.7.7.7.",
"7.7.7.7.7.7.7.7.f     f *.7.7.7.7.7.7.7.7.7.7.7.7.7.7.7.7.7.7.7.7.7.7.7.7.7.7.7.7.7.7.7.7.7.7.7.7.7.7.7.7.7.7.7.7.7.7.7.7.7.7.7.",
"7.7.7.7.7.7.7.7.F 3 ^ 7.7.7.7.7.7.7.7.7.7.7.7.7.7.7.7.7.7.7.7.7.7.7.7.7.7.7.7.7.7.7.7.7.7.7.7.7.7.7.7.7.7.7.7.7.7.7.7.7.7.7.7.7.",
"7.7.7.7.7.7.7.7.7.7.7.7.7.7.7.7.7.7.7.7.7.7.7.7.7.7.7.7.7.7.7.7.7.7.7.7.7.7.7.7.7.7.7.7.7.7.7.7.7.7.7.7.7.7.7.7.7.7.7.7.7.7.7.7.",
"7.7.7.7.7.7.7.7.7.7.7.7.7.7.7.7.7.7.7.7.7.7.7.7.7.7.7.7.7.7.7.7.7.7.7.7.7.7.7.7.7.7.7.7.7.7.7.7.7.7.7.7.7.7.7.7.7.7.7.7.7.7.7.7.",
"7.7.7.7.7.7.7.7.7.7.7.7.7.7.7.7.7.7.7.7.7.7.7.7.7.7.7.7.7.7.7.7.7.7.7.7.7.7.7.7.7.7.7.7.7.7.7.7.7.7.7.7.7.7.7.7.7.7.7.7.7.7.7.7.",
"7.7.7.7.7.7.7.7.7.7.7.7.7.7.7.7.7.7.7.7.7.7.7.7.7.7.7.7.7.7.7.7.7.7.7.7.7.7.7.7.7.7.7.7.7.7.7.7.7.7.7.7.7.7.7.7.7.7.7.7.7.7.7.7."
};
