/* XPM */
static char *_96ddf15e0124c2c8dfd05bae803c865tb39qhAsslErptjO[] = {
/* columns rows colors chars-per-pixel */
"64 64 111 2 ",
"   c black",
".  c #020202",
"X  c gray1",
"o  c #040404",
"O  c gray2",
"+  c #070707",
"@  c #090909",
"#  c #0B0B0B",
"$  c #131313",
"%  c #151515",
"&  c gray9",
"*  c #1D1D1D",
"=  c gray12",
"-  c gray13",
";  c #232323",
":  c #252525",
">  c gray15",
",  c #272727",
"<  c gray16",
"1  c #2D2D2D",
"2  c #2F2F2F",
"3  c #313131",
"4  c gray20",
"5  c gray21",
"6  c #373737",
"7  c #3A3A3A",
"8  c #3C3C3C",
"9  c #3E3E3E",
"0  c gray25",
"q  c #444444",
"w  c #464646",
"e  c #484848",
"r  c gray29",
"t  c #4E4E4E",
"y  c #505050",
"u  c #585858",
"i  c #5A5A5A",
"p  c #606060",
"a  c #626262",
"s  c #646464",
"d  c DimGray",
"f  c #6D6D6D",
"g  c #6F6F6F",
"h  c #717171",
"j  c gray45",
"k  c #747474",
"l  c #777777",
"z  c #797979",
"x  c #7B7B7B",
"c  c gray49",
"v  c #818181",
"b  c #838383",
"n  c gray52",
"m  c #868686",
"M  c gray53",
"N  c #898989",
"B  c #8B8B8B",
"V  c #8D8D8D",
"C  c gray56",
"Z  c #909090",
"A  c gray57",
"S  c #959595",
"D  c #979797",
"F  c #9A9A9A",
"G  c gray61",
"H  c gray62",
"J  c #A0A0A0",
"K  c #A2A2A2",
"L  c gray64",
"P  c #A4A4A4",
"I  c gray65",
"U  c gray66",
"Y  c #AAAAAA",
"T  c #ACACAC",
"R  c gray68",
"E  c #AEAEAE",
"W  c gray69",
"Q  c #B1B1B1",
"!  c #B4B4B4",
"~  c #B6B6B6",
"^  c gray72",
"/  c #B9B9B9",
"(  c #BCBCBC",
")  c gray",
"_  c #C0C0C0",
"`  c #C6C6C6",
"'  c #C8C8C8",
"]  c #CACACA",
"[  c gray80",
"{  c #CDCDCD",
"}  c gray81",
"|  c LightGray",
" . c #D5D5D5",
".. c #D7D7D7",
"X. c gray86",
"o. c #DDDDDD",
"O. c #DFDFDF",
"+. c #E1E1E1",
"@. c #E2E2E2",
"#. c gray90",
"$. c #E9E9E9",
"%. c #EAEAEA",
"&. c gray92",
"*. c #EFEFEF",
"=. c #F1F1F1",
"-. c #F3F3F3",
";. c gray96",
":. c #F8F8F8",
">. c #F9F9F9",
",. c #FDFDFD",
"<. c white",
/* pixels */
"<.<.<.<.<.<.<.<.<.<.<.<.<.<.<.<.<.<.<.<.<.<.<.<.<.<.<.<.<.<.<.<.<.<.<.<.<.<.<.<.<.<.<.<.<.<.<.<.<.<.<.<.<.<.<.<.<.<.<.<.<.<.<.<.",
"<.<.<.<.<.<.<.<.<.<.<.<.<.<.<.<.<.<.<.<.<.<.<.<.<.<.<.<.<.<.<.&.<.<.<.<.<.<.<.<.<.<.<.<.<.<.<.<.<.<.<.<.<.<.<.<.<.<.<.<.<.<.<.<.",
"<.<.<.<.<.<.<.<.<.<.<.<.<.<.<.<.<.<.<.<.<.<.<.<.<.<.<.<.<.<.l   [ <.<.<.<.<.<.<.<.<.<.<.<.<.<.<.<.<.<.<.<.<.<.<.<.<.<.<.<.<.<.<.",
"<.<.<.<.<.<.<.<.<.<.<.<.<.<.<.<.<.<.<.<.<.<.<.<.<.<.<.<.<.<.i   Y <.<.<.<.<.<.<.<.<.<.<.<.<.<.<.<.<.<.<.<.<.<.<.<.<.<.<.<.<.<.<.",
"<.<.<.<.<.<.<.<.<.<.<.<.<.<.<.<.<.<.<.<.<.<.<.<.<.<.<.<.<.<.i   E <.<.<.<.<.<.<.<.<.<.<.<.<.<.<.<.<.<.<.<.<.<.<.<.<.<.<.<.<.<.<.",
"<.<.<.<.<.<.<.<.<.<.<.<.<.<.<.<.<.<.<.<.<.<.<.<.<.<.<.<.<.<.i   Y <.<.<.<.<.<.<.<.<.<.<.<.<.<.<.<.<.<.<.<.<.<.<.<.<.<.<.<.<.<.<.",
"<.<.<.<.<.<.<.<.<.<.<.<.<.<.<.<.<.<.<.<.<.<.<.<.<.<.<.<.<.<.u   Y <.<.<.<.<.<.<.<.<.<.<.<.<.<.<.<.<.<.<.<.<.<.<.<.<.<.<.<.<.<.<.",
"<.<.<.<.<.<.<.<.<.<.<.<.<.<.<.<.<.<.<.<.<.<.<.<.<.<.<.<.<.<.i   Y <.<.<.<.<.<.<.<.<.<.<.<.<.<.<.<.<.<.<.<.<.<.<.<.<.<.<.<.<.<.<.",
"<.<.<.<.<.<.<.<.<.<.<.<.<.<.<.<.<.<.<.<.<.<.<.<.<.<.<.<.<.<.i   Y <.<.<.<.<.<.<.<.<.<.<.<.<.<.<.<.<.<.<.<.<.<.<.<.<.<.<.<.<.<.<.",
"<.<.<.<.<.<.<.<.<.<.<.<.<.<.<.<.<.<.[ z l z z l l z l l l l >   y l l l l l B B B B H <.<.<.<.<.<.<.<.<.<.<.<.<.<.<.<.<.<.<.<.<.",
"<.<.<.<.<.<.<.<.<.<.<.<.<.<.<.<.<.<.r                                                 ] <.<.<.<.<.<.<.<.<.<.<.<.<.<.<.<.<.<.<.<.",
"<.<.<.<.<.<.<.<.<.<.<.<.<.<.<.<.<.<.[ B B C C B B C B B B M   + B B B B B B l l l l 9 -.<.<.<.<.<.<.<.<.<.<.<.<.<.<.<.<.<.<.<.<.",
"<.<.<.<.<.<.<.<.<.<.<.<.<.<.<.<.<.<.<.<.<.<.<.<.<.<.<.<.<...  ; <.<.<.<.<.<.<.<.<.<.<.<.<.<.<.<.<.<.<.<.<.<.<.<.<.<.<.<.<.<.<.<.",
"<.<.<.<.<.<.<.<.<.<.<.<.<.<.<.<.<.<.<.<.<.<.<.<.<.<.<.<.<.(   9 <.<.<.<.<.<.<.<.<.<.<.<.<.<.<.<.<.<.<.<.<.<.<.<.<.<.<.<.<.<.<.<.",
"<.<.<.<.<.<.<.<.<.<.<.<.<.<.<.<.<.<.<.<.<.<.<.<.<.<.<.<.<.E   r <.<.<.<.<.<.<.<.<.<.<.<.<.<.<.<.<.<.<.<.<.<.<.<.<.<.<.<.<.<.<.<.",
"<.<.<.<.<.<.<.<.<.<.<.<.<.<.<.<.<.<.<.<.<.<.<.<.<.<.<.<.<.S   f <.<.<.<.<.<.<.<.<.<.<.<.<.<.<.<.<.<.<.<.<.<.<.<.<.<.<.<.<.<.<.<.",
"<.<.<.<.<.<.<.<.<.<.<.<.<.<.<.<.<.<.<.<.<.<.<.<.<.<.<.<.<.C   f <.<.<.<.<.<.<.<.<.<.<.<.<.<.<.<.<.<.<.<.<.<.<.<.<.<.<.<.<.<.<.<.",
"<.<.<.<.<.<.<.<.<.<.<.<.<.<.<.<.<.<.<.<.<.<.<.<.<.<.<.<.<.i   H <.<.<.<.<.<.<.<.<.<.<.<.<.<.<.<.<.<.<.<.<.<.<.<.<.<.<.<.<.<.<.<.",
"<.<.<.<.<.<.<.<.<.<.<.<.<.<.<.<.<.<.<.<.<.<.<.<.<.<.<.<.<.q   ( <.<.<.<.<.<.<.<.<.<.<.<.<.<.<.<.<.<.<.<.<.<.<.<.<.<.<.<.<.<.<.<.",
"<.<.<.<.<.<.<.<.<.;.! ! ! ! ! ! ! ! ! ! ! ! E L H L ! ! ! a < L ! ! ! ! ! ! ! L d a a a t 7 7 t a L Z v <.<.<.<.<.<.<.<.<.<.<.<.",
"<.<.<.<.<.<.<.<.<.c                                                                                     ` <.<.<.<.<.<.<.<.<.<.<.",
"<.<.<.<.<.<.<.<.<.L = w y t t t t t t t t t y a a s t t t t t y t t t y t t t a B L H L L ` ] ! Z a %   ( <.<.<.<.<.<.<.<.<.<.<.",
"<.<.<.<.<.<.<.<.<.f   S <.<.<.<.<.<.<.<.<.<.<.<.<.<.<.<.<.<.<.<.<.<.<.<.<.<.<.<.<.<.<.<.<.<.<.<.<.<.w   _ <.<.<.<.<.<.<.<.<.<.<.",
"<.<.<.<.<.<.<.<.<.f   S <.<.<.<.<.<.<.<.<.<.<.<.<.<.<.<.<.<.<.<.<.<.<.<.<.<.<.<.<.<.<.<.<.<.<.<.<.<.w   _ <.<.<.<.<.<.<.<.<.<.<.",
"<.<.<.<.<.<.<.<.<.f   S <.<.<.<.<.<.<.<.<.<.<.<.<.<.<.<.<.<.<.<.<.<.<.<.<.<.<.<.<.<.<.<.<.<.<.<.<.<.w   ( <.<.<.<.<.<.<.<.<.<.<.",
"<.<.<.<.<.<.<.<.<.f   S <.<.<.<.<.<.<.<.<.<.<.<.<.<.<.<.<.<.<.<.<.<.<.<.<.<.<.<.<.<.<.<.<.<.<.<.<.<.q   ( <.<.<.<.<.<.<.<.<.<.<.",
"<.<.<.<.<.<.<.<.<.h   S <.<.<.<.<.<.<.<.<.<.<.<.<.<.<.<.<.<.<.<.<.<.<.<.<.<.<.<.<.<.<.<.<.<.<.<.<.<.w   _ <.<.<.<.<.<.<.<.<.<.<.",
"<.<.<.<.<.<.<.<.<.f   S <.<.<.<.<.<.<.<.<.<.<.<.<.<.<.<.<.<.<.<.<.<.<.<.<.<.<.^ E <.<.<.<.<.<.<.<.<.w   ( <.<.<.<.<.<.<.<.<.<.<.",
"<.<.<.<.<.<.<.<.<.f   S <.<.<.<.<.<.<.<.<.<.@.h ( <.<.<.<.<.<.<.<.<.<.<.<.<.&.+ + <.<.<.<.<.<.<.<.<.q   ( <.<.<.<.<.<.<.<.<.<.<.",
"<.<.<.<.<.<.<.<.<.f   S <.<.<.<.<.<.<.<.<.<.Z   + E <.<.<.<.<.<.<.<.<.<.<.<.M   w <.<.<.<.<.<.<.<.<.w   ( <.<.<.<.<.<.<.<.<.<.<.",
"<.<.<.<.<.<.<.<.<.f   S <.<.<.<.<.<.<.<.<.<.-.t     ! <.<.<.<.<.<.<.<.<.<.Y     E <.<.<.<.<.<.<.<.<.3   ` <.<.<.<.<.<.<.<.<.<.<.",
"<.<.<.<.<.<.<.<.<.f   S <.<.<.<.<.<.<.<.<.<.<.:.a     E <.<.<.<.<.<.<.<.H     M <.<.<.<.<.<.<.<.<.<.>   X.<.<.<.<.<.<.<.<.<.<.<.",
"<.<.<.<.<.<.<.<.<.f   S <.<.<.<.<.<.<.<.<.<.<.<.:.s   ; [ <.<.<.<.<.:.F     M <.<.<.<.<.<.<.<.<.<.-.+   @.<.<.<.<.<.<.<.<.<.<.<.",
"<.<.<.<.<.<.<.<.<.f   S <.<.<.<.<.<.<.<.<.<.<.<.<.;.3   @ o.<.<.<.<.B     z <.<.<.<.<.<.<.<.<.<.<.o.  = <.<.<.<.<.<.<.<.<.<.<.<.",
"<.<.<.<.<.<.<.<.<.f   S <.<.<.<.<.<.<.<.<.<.[ ] ] ] ^ 5 @ ! ] ] ] ] d + h L S B z a a M <.<.<.<.<.|   2 <.<.<.<.<.<.<.<.<.<.<.<.",
"<.<.<.<.<.<.<.<.<.f   S <.<.<.<.<.<.<.<.<.F                                           + <.<.<.<.<.|   2 <.<.<.<.<.<.<.<.<.<.<.<.",
"<.<.<.<.<.<.<.<.<.f   S <.<.<.<.<.<.<.<.<.[ 9 7 7 9 7 7 7 7 <   % 7 7 7 t a f z M S H ( <.<.<.<.<...  3 <.<.<.<.<.<.<.<.<.<.<.<.",
"<.<.<.<.<.<.<.<.<.f   S <.<.<.<.<.<.<.<.<.<.<.<.<.<.<.<.<.<.Y   i <.<.<.<.<.<.<.<.<.<.<.<.<.<.<.<.|   2 <.<.<.<.<.<.<.<.<.<.<.<.",
"<.<.<.<.<.<.<.<.<.f   S <.<.<.<.<.<.<.<.<.<.<.<.<.<.<.<.<.<.Y   i <.<.<.<.<.<.<.<.<.<.<.<.<.<.<.<.|   2 <.<.<.<.<.<.<.<.<.<.<.<.",
"<.<.<.<.<.<.<.<.<.f   S <.<.<.<.<.<.<.<.<.<.<.<.<.<.<.<.<.<.E   i <.<.<.<.<.<.<.<.<.<.<.<.<.<.<.<.|   2 <.<.<.<.<.<.<.<.<.<.<.<.",
"<.<.<.<.<.<.<.<.<.f   S <.<.<.<.<.<.<.<.<.<.<.<.<.<.<.<.<.<.Y   u <.<.<.<.<.<.<.<.<.<.<.<.<.<.<.<.|   2 <.<.<.<.<.<.<.<.<.<.<.<.",
"<.<.<.<.<.<.<.<.<.f   S <.<.<.<.<.<.<.<.<.<.<.<.<.<.<.<.<.<.E   i <.<.<.<.<.<.<.<.<.<.<.<.<.<.<.<.|   2 <.<.<.<.<.<.<.<.<.<.<.<.",
"<.<.<.<.<.<.<.<.<.f   S <.<.<.<.<.<.<.<.<.<.<.<.<.<.<.<.<.<.Y   u <.<.<.<.<.<.<.<.<.<.<.<.<.<.<.<.|   2 <.<.<.<.<.<.<.<.<.<.<.<.",
"<.<.<.<.<.<.<.<.<.h   S <.<.<.<.<.<.<.<.<.<.<.<.<.<.<.<.<.<.Y   u <.<.<.<.<.<.<.<.<.&.] ] ;.<.<.<...  3 <.<.<.<.<.<.<.<.<.<.<.<.",
"<.<.<.<.<.<.<.<.<.f   S <.<.<.<.<.<.<.<.<.z 7 9 9 7 7 7 9 7 >   % 7 7 9 7 7 7 7 7 7 +     f <.<.<...  3 <.<.<.<.<.<.<.<.<.<.<.<.",
"<.<.<.<.<.<.<.<.<.v   h <.<.<.<.<.<.<.<.<.>                                           5 7 Y <.<.<.|   2 <.<.<.<.<.<.<.<.<.<.<.<.",
"<.<.<.<.<.<.<.<.<.v   v <.<.<.<.<.<.<.<.<.&.] ] ] ] ] ` ] ] M   w ` ] ] ] ` ] ` ] ` &.<.<.<.<.<.<.|   2 <.<.<.<.<.<.<.<.<.<.<.<.",
"<.<.<.<.<.<.<.<.<.v   c <.<.<.<.<.<.<.<.<.<.<.<.<.<.<.<.<.<.Y   i <.<.<.<.<.<.<.<.<.<.<.<.<.<.<.<.|   2 <.<.<.<.<.<.<.<.<.<.<.<.",
"<.<.<.<.<.<.<.<.<.v   v <.<.<.<.<.<.<.<.<.<.<.<.<.<.<.<.<.<.E   i <.<.<.<.<.<.<.<.<.<.<.<.<.<.<.<.|   2 <.<.<.<.<.<.<.<.<.<.<.<.",
"<.<.<.<.<.<.<.<.<.v   v <.<.<.<.<.<.<.<.<.<.<.<.<.<.<.<.<.<.M   l <.<.<.<.<.<.<.<.<.<.<.<.<.<.<.<...  3 <.<.<.<.<.<.<.<.<.<.<.<.",
"<.<.<.<.<.<.<.<.<.v   v <.<.<.<.<.<.<.<.<.<.<.<.<.<.<.<.<.<.f   Z <.<.<.<.<.<.<.<.<.<.<.<.<.<.<.<...  3 <.<.<.<.<.<.<.<.<.<.<.<.",
"<.<.<.<.<.<.<.<.<.v   v <.<.<.<.<.<.<.<.<.<.<.<.<.<.<.<.<.<.f   S <.<.<.<.<.<.<.<.<.<.<.<.<.<.<.<.|   2 <.<.<.<.<.<.<.<.<.<.<.<.",
"<.<.<.<.<.<.<.<.<.v   v <.<.<.<.<.<.<.<.<.<.<.<.<.<.<.<.<.<.f   S <.<.<.<.<.<.<.<.<.<.<.<.<.<.<.<...  3 <.<.<.<.<.<.<.<.<.<.<.<.",
"<.<.<.<.<.<.<.<.<.M   v <.<.<.<.<.<.<.<.<.<.<.<.<.<.<.<.<.<.f   S <.<.<.<.<.<.<.<.<.<.<.<.@.<.<.<.|   2 <.<.<.<.<.<.<.<.<.<.<.<.",
"<.<.<.<.<.<.<.<.<.v   v <.<.<.<.<.<.<.<.<.<.<.<.<.<.<.<.<.<.s   S <.<.<.<.<.<.<.<.<.<.<.h   v <.<.|   ; <.<.<.<.<.<.<.<.<.<.<.<.",
"<.<.<.<.<.<.<.<.<.v   v <.<.<.<.<.<.<.<.<.<.<.<.<.<.<.<.<.<.w   E <.<.<.<.<.<.<.<.<.<.<.C     t &.-.@   &.<.<.<.<.<.<.<.<.<.<.<.",
"<.<.<.<.<.<.<.<.<.v   v <.<.<.<.<.<.<.<.<.<.<.<.<.<.<.<.<.<.C 9 #.<.<.<.<.<.<.<.<.<.<.<.<.M +   ; B 2   ( <.<.<.<.<.<.<.<.<.<.<.",
"<.<.<.<.<.<.<.<.<.v   v <.<.<.<.<.<.<.<.<.<.<.<.<.<.<.<.<.<.<.<.<.<.<.<.<.<.<.<.<.<.<.<.<.<.] =         ( <.<.<.<.<.<.<.<.<.<.<.",
"<.<.<.<.<.<.<.<.<.t   E <.<.<.<.<.<.<.<.<.<.<.<.<.<.<.<.<.<.<.<.<.<.<.<.<.<.<.<.<.<.<.<.<.<.<.;.L 9 $   _ <.<.<.<.<.<.<.<.<.<.<.",
"<.<.<.<.<.<.<.<.<.-...<.<.<.<.<.<.<.<.<.<.<.<.<.<.<.<.<.<.<.<.<.<.<.<.<.<.<.<.<.<.<.<.<.<.<.<.<.<.<.X.I <.<.<.<.<.<.<.<.<.<.<.<.",
"<.<.<.<.<.<.<.<.<.<.<.<.<.<.<.<.<.<.<.<.<.<.<.<.<.<.<.<.<.<.<.<.<.<.<.<.<.<.<.<.<.<.<.<.<.<.<.<.<.<.<.<.<.<.<.<.<.<.<.<.<.<.<.<.",
"<.<.<.<.<.<.<.<.<.<.<.<.<.<.<.<.<.<.<.<.<.<.<.<.<.<.<.<.<.<.<.<.<.<.<.<.<.<.<.<.<.<.<.<.<.<.<.<.<.<.<.<.<.<.<.<.<.<.<.<.<.<.<.<.",
"<.<.<.<.<.<.<.<.<.<.<.<.<.<.<.<.<.<.<.<.<.<.<.<.<.<.<.<.<.<.<.<.<.<.<.<.<.<.<.<.<.<.<.<.<.<.<.<.<.<.<.<.<.<.<.<.<.<.<.<.<.<.<.<.",
"<.<.<.<.<.<.<.<.<.<.<.<.<.<.<.<.<.<.<.<.<.<.<.<.<.<.<.<.<.<.<.<.<.<.<.<.<.<.<.<.<.<.<.<.<.<.<.<.<.<.<.<.<.<.<.<.<.<.<.<.<.<.<.<."
};
