/* XPM */
static char *e502590b05404845f4628d80bc2a1876SgSvkBYD2frV3yI3[] = {
/* columns rows colors chars-per-pixel */
"64 64 109 2 ",
"   c black",
".  c #010101",
"X  c #020202",
"o  c gray1",
"O  c gray2",
"+  c #060606",
"@  c #070707",
"#  c #090909",
"$  c #0C0C0C",
"%  c #111111",
"&  c gray7",
"*  c #131313",
"=  c gray9",
"-  c #191919",
";  c #1B1B1B",
":  c #1D1D1D",
">  c #1E1E1E",
",  c gray12",
"<  c #202020",
"1  c #252525",
"2  c #272727",
"3  c gray17",
"4  c #2F2F2F",
"5  c gray19",
"6  c #313131",
"7  c gray20",
"8  c gray21",
"9  c #373737",
"0  c gray22",
"q  c #3A3A3A",
"w  c gray23",
"e  c #3C3C3C",
"r  c #3E3E3E",
"t  c gray26",
"y  c #444444",
"u  c #464646",
"i  c #484848",
"p  c #4E4E4E",
"a  c #505050",
"s  c gray32",
"d  c gray33",
"f  c #565656",
"g  c #585858",
"h  c #5A5A5A",
"j  c gray36",
"k  c #606060",
"l  c #626262",
"z  c #646464",
"x  c gray42",
"c  c #6C6C6C",
"v  c #6F6F6F",
"b  c #717171",
"n  c #777777",
"m  c gray47",
"M  c #797979",
"N  c #7B7B7B",
"B  c gray49",
"V  c gray50",
"C  c #818181",
"Z  c #838383",
"A  c gray52",
"S  c gray53",
"D  c #8B8B8B",
"F  c #8D8D8D",
"G  c gray56",
"H  c #939393",
"J  c #959595",
"K  c #979797",
"L  c #A0A0A0",
"P  c #A2A2A2",
"I  c #A4A4A4",
"U  c #AAAAAA",
"Y  c #ACACAC",
"T  c gray68",
"R  c #B4B4B4",
"E  c #B6B6B6",
"W  c gray72",
"Q  c #BCBCBC",
"!  c gray",
"~  c #C0C0C0",
"^  c #C3C3C3",
"/  c gray77",
"(  c #C6C6C6",
")  c gray78",
"_  c #C8C8C8",
"`  c #CACACA",
"'  c gray80",
"]  c gray82",
"[  c LightGray",
"{  c #D5D5D5",
"}  c #D7D7D7",
"|  c gray85",
" . c gray86",
".. c #DDDDDD",
"X. c #DFDFDF",
"o. c #E1E1E1",
"O. c #E4E4E4",
"+. c gray90",
"@. c #E7E7E7",
"#. c #E9E9E9",
"$. c gray92",
"%. c #EFEFEF",
"&. c #F1F1F1",
"*. c #F3F3F3",
"=. c gray97",
"-. c #F9F9F9",
";. c #FBFBFB",
":. c #FDFDFD",
">. c white",
/* pixels */
">.>.>.>.>.>.>.>.>.>.>.>.>.>.>.>.>.>.>.>.>.>.>.>.>.>.>.>.>.>.>.>.>.>.>.>.>.>.>.>.>.>.>.>.>.>.>.>.>.>.>.>.>.>.>.>.>.>.>.>.>.>.>.>.",
">.>.>.>.>.>.>.>.>.>.>.>.>.>.>.>.>.>.>.>.>.>.>.>.>.>.>.>.>.>.>.>.>.>.>.>.>.>.>.>.>.>.>.>.>.>.>.>.>.>.>.>.>.>.>.>.>.>.>.>.>.>.>.>.",
">.>.>.>.>.>.>.>.>.>.>.>.>.>.>.>.>.>.>.>.>.>.>.>.>.>.>.>.>.>.>.>.>.>.>.>.>.>.>.>.>.>.>.>.>.>.>.>.>.>.>.>.>.>.>.>.>.>.>.>.>.>.>.>.",
">.>.>.>.>.>.>.>.>.>.>.>.>.>.>.>.>.>.>.>.>.>.>.>.>.>.>.>.>.>.>.>.>.>.>.>.>.>.>.>.>.>.>.>.>.>.>.>.>.>.>.>.>.>.>.>.>.>.>.>.>.>.>.>.",
">.>.>.>.>.>.>.>.>.>.>.>.>.>.>.>.>.>.>.>.>.>.>.>.>.>.>.>.>.>.>.>.>.>.>.>.>.>.>.>.>.>.>.>.>.>.>.>.>.>.>.>.>.>.>.>.>.>.>.>.>.>.>.>.",
">.>.>.>.>.>.>.>.>.>.>.>.>.>.>.>.>.>.>.>.>.>.>.>.>.>.>.>.>.>.>.>.>.>.>.>.>.>.>.>.>.>.>.>.>.>.>.>.>.>.>.>.>.>.>.>.>.>.>.>.>.>.>.>.",
">.>.>.>.>.>.>.>.>.>.>.>.>.>.>.>.>.>.>.>.>.>.>.>.>.>.>.>.>.>.>.>.>.>.>.>.>.>.>.>.>.>.>.>.>.>.>.>.>.>.>.>.>.>.>.>.>.>.>.>.>.>.>.>.",
">.>.>.>.>.>.>.>.>.>.>.>.>.>.>.>.>.>.>.>.>.>.>.>.>.>.>.>.>.>.>.>.>.>.>.>.>.>.>.>.>.>.>.>.>.>.>.>.>.>.>.>.>.>.>.>.>.>.>.>.>.>.>.>.",
">.>.>.>.>.>.>.>.>.>.>.>.>.>.>.>.>.>.>.>.>.>.>.>.>.>.>.>.>.>.>.>.>.>.>.>.>.>.>.>.>.>.>.>.>.>.>.>.>.>.>.>.>.>.>.>.>.>.>.>.>.>.>.>.",
">.>.>.>.>.>.>.>.>.>.>.>.>.>.>.>.>.>.>.>.>.>.>.>.>.>.>.>.>.>.>.>.>.>.>.>.>.>.>.>.>.>.>.>.>.>.>.>.>.>.>.>.>.>.>.>.>.>.>.>.>.>.>.>.",
">.>.>.>.>.>.>.>.>.>.>.>.T q q q q q q q e q q q q e q q q q q q e q q q q q e q q q q q q q e q e q q 6 %.>.>.>.>.>.>.>.>.>.>.>.",
">.>.>.>.>.>.>.>.>.>.>.>.c                                                                                .>.>.>.>.>.>.>.>.>.>.>.",
">.>.>.>.>.>.>.>.>.>.>.>.=._ _ _ _ _ _ _ _ _ _ _ 9   K _ _ _ _ _ _ _ _ 6 : / _ _ _ _ _ _ _ _ _ _ _ _ _ [ >.>.>.>.>.>.>.>.>.>.>.>.",
">.>.>.>.>.>.>.>.>.>.>.>.>.>.>.>.>.>.>.>.>.>.>.>.u   ~ >.>.>.>.>.>.>.>.O   ;.>.>.>.>.>.>.>.>.>.>.>.>.>.>.>.>.>.>.>.>.>.>.>.>.>.>.",
">.>.>.>.>.>.>.>.>.>.>.>.>.>.>.>.>.>.>.>.>.>.>.>.u   ~ >.>.>.>.>.>.>.>.O   ;.>.>.>.>.>.>.>.>.>.>.>.>.>.>.>.>.>.>.>.>.>.>.>.>.>.>.",
">.>.>.>.>.>.>.>.>.>.>.>.>.>.>.>.>.>.>.>.>.>.>.>.u   ! >.>.>.>.>.>.>.>.O   ;.>.>.>.>.>.>.>.>.>.>.>.>.>.>.>.>.>.>.>.>.>.>.>.>.>.>.",
">.>.>.>.>.>.>.>.>.>.>.>.>.>.>.>.>.>.>.>.>.>.>.>.4   ' >.>.>.>.>.>.>.>.# O ;.>.>.>.>.>.>.>.>.>.>.>.>.>.>.>.>.>.>.>.>.>.>.>.>.>.>.",
">.>.>.>.>.>.>.>.>.>.>.>.>.>.>.>.>.>.>.>.>.>.>.*.O   $.>.>.>.>.>.>.>.>.O   ;.>.>.>.>.>.>.>.>.>.>.>.>.>.>.>.>.>.>.>.>.>.>.>.>.>.>.",
">.>.>.>.>.>.>.>.>.>.>.>.>.>.>.>.>.>.>.>.>.>.>.!   6 >.>.>.>.>.>.>.>.>.O   ;.>.>.>.>.>.>.>.>.>.>.>.>.>.>.>.>.>.>.>.>.>.>.>.>.>.>.",
">.>.>.>.>.>.>.>.>.>.>.>.>.>.>.>.>.>.>.>.>.>.>.B   N >.>.>.>.>.>.>.>.>.# O ;.>.>.>.>.>.>.>.>.>.>.>.>.>.>.>.>.>.>.>.>.>.>.>.>.>.>.",
">.>.>.>.>.>.>.>.>.>.>.>.>.>.>.>.>.>.>.>.>.>.>.9   W >.>.>.>.>.>.>.>.>.# O ;.>.>.>.>.>.>.>.>.>.>.>.>.>.>.>.>.>.>.>.>.>.>.>.>.>.>.",
">.>.>.>.>.>.>.>.>.>.>.>.>.>.>.>.>.>.>.>.>.>.+.  O *.>.>.>.>.>.>.>.>.>.O   ;.>.>.>.>.>.>.>.>.>.>.>.>.>.>.>.>.>.>.>.>.>.>.>.>.>.>.",
">.>.>.>.>.>.>.>.;.C l l z l l l l z l l l z q   < z l l x C P !  .X.X.O   +.;.>.>.>.>.>.>.>.>.>.>.>.>.>.*.>.>.>.>.>.>.>.>.>.>.>.",
">.>.>.>.>.>.>.>.{                                                           O % 1 t s l l l l z l i 1 O   u >.>.>.>.>.>.>.>.>.>.",
">.>.>.>.>.>.>.>.>.e   x P P P P P P P P P F   O K P P P K b g u 1 1 1     % #                             : >.>.>.>.>.>.>.>.>.>.",
">.>.>.>.>.>.>.>.>.g   U >.>.>.>.>.>.>.>.>.N   l >.>.>.>.>.>.>.>.>.>.>.O   ;.;.%. .! R P P P P P P R X.~   4 >.>.>.>.>.>.>.>.>.>.",
">.>.>.>.>.>.>.>.>.g   U >.>.>.>.>.>.>.>.*.%   ' >.>.>.>.>.>.>.>.>.>.>.# O ;.>.>.>.>.>.>.>.>.>.>.>.>.>.{   6 >.>.>.>.>.>.>.>.>.>.",
">.>.>.>.>.>.>.>.>.g   T >.>.>.>.>.>.>.>.F   q >.>.>.>.>.>.>.>.>.>.>.>.# O ;.>.>.>.>.>.>.>.>.>.>.>.>.>.[   4 >.>.>.>.>.>.>.>.>.>.",
">.>.>.>.>.>.>.>.>.g   U >.>.>.>.>.>.>.$.%   ! >.>.>.>.>.>.>.>.>.>.>.;.O   ;.>.>.>.>.>.>.>.>.>.>.>.>.>.[   4 >.>.>.>.>.>.>.>.>.>.",
">.>.>.>.>.>.>.>.>.g   U >.>.>.>.>.>.>.b   u >.>.>.>.>.>.>.>.>.>.>.>.;.O   $.>.>.>.>.>.>.>.>.>.>.>.>.>.[   4 >.>.>.>.>.>.>.>.>.>.",
">.>.>.>.>.>.>.>.>.g   U >.>.>.>.>.>.[     ' >.>.>.>.>.>.>.>.>.>.>.>.>.-   { >.>.>.>.>.>.>.>.>.>.>.>.>.[   4 >.>.>.>.>.>.>.>.>.>.",
">.>.>.>.>.>.>.>.>.g   U >.>.>.>.>.;.e   c >.>.>.>.>.>.>.>.>.>.>.>.>.>.s   P >.>.>.>.>.>.>.>.>.>.>.>.>.[   4 >.>.>.>.>.>.>.>.>.>.",
">.>.>.>.>.>.>.>.>.g   U >.>.>.>.>.H   = $.>.>.>.>.>.>.>.>.>.>.>.>.>.>.P     B *.>.>.>.>.>.>.>.>.>.>.>.{   6 >.>.>.>.>.>.>.>.>.>.",
">.>.>.>.>.>.>.>.>.g   U >.>.>.>./ O   R >.>.>.>.>.>.>.>.>.>.>.>.>.>.>.;.N     - F  .>.>.>.>.>.>.>.>.>.[   4 >.>.>.>.>.>.>.>.>.>.",
">.>.>.>.>.>.>.>.>.g   U >.>.>.$.:   N >.>.>.>.>.>.>.>.>.>.>.>.>.>.>.>.>.>.~ q       1 x T ' *.*.*.>.>.[   4 >.>.>.>.>.>.>.>.>.>.",
">.>.>.>.>.>.>.>.>.g   U >.>.=.s   e =.>.>.>.>.>.>.>.>.>.>.>.>.>.>.>.>.>.>.>.>.W j %             # o.>.[   4 >.>.>.>.>.>.>.>.>.>.",
">.>.>.>.>.>.>.>.>.g   U >.>.c   % X.>.>.>.>.>.>.>.>.>.>.>.>.>.>.>.>.>.>.>.>.>.>.>.;.' S f 3 % % - +.>.{   6 >.>.>.>.>.>.>.>.>.>.",
">.>.>.>.>.>.>.>.>.g   U >.f   O _ >.>.>.>.>.>.>.>.>.>.>.>.>.>.>.>.>.>.>.>.>.>.>.>.>.>.>.>.>.>.>.>.>.>.[   4 >.>.>.>.>.>.>.>.>.>.",
">.>.>.>.>.>.>.>.>.g   U >.j O I >.>.>.>.>.>.>.>.>.>.>.>.>.>.>.>.>.>.>.>.>.>.>.>.>.>.>.>.>.>.>.>.>.>.>.[   4 >.>.>.>.>.>.>.>.>.>.",
">.>.>.>.>.>.>.>.>.g   U >.>.*.>.>.>.>.>.>.>.>.>.>.>.>.>.>.>.>.>.>.>.>.>.>.>.>.>.>.>.>.>.>.>.>.>.>.>.>.{   6 >.>.>.>.>.>.>.>.>.>.",
">.>.>.>.>.>.>.>.>.g   U >.>.>.>.>.>.>.>.>.>.>.>.>.>.>.>.>.>.>.>.>.>.>.>.>.>.>.>.>.>.>.>.>.>.>.>.>.>.>.{   6 >.>.>.>.>.>.>.>.>.>.",
">.>.>.>.>.>.>.>.>.g   U >.>.>.>.>.>.>.>.>.>.>.>.>.>.>.>.>.>.>.>.>.>.>.>.>.>.>.>.>.>.>.>.>.>.>.>.>.>.>.[   4 >.>.>.>.>.>.>.>.>.>.",
">.>.>.>.>.>.>.>.>.g   U >.>.>.>.>.>.>.>.>.>.>.>.>.>.>.>.>.>.>.>.>.>.>.>.>.>.>.>.>.>.>.>.>.>.>.>.>.>.>.X.  1 >.>.>.>.>.>.>.>.>.>.",
">.>.>.>.>.>.>.>.>.g   U >.>.>.>.>.>.>.>.>.>.>.>.>.>.>.>.>.>.>.>.>.>.>.>.>.>.>.>.>.>.>.>.>.>.>.>.>.>.>.+.  - >.>.>.>.>.>.>.>.>.>.",
">.>.>.>.>.>.>.>.>.g   U >.>.>.>.>.>.>.>.>.>.>.>.>.>.>.>.>.>.>.>.>.>.>.>.>.>.>.>.>.>.>.>.>.>.>.>.>.>.>.+.  - >.>.>.>.>.>.>.>.>.>.",
">.>.>.>.>.>.>.>.>.g   U >.>.>.>.>.>.>.>.>.>.>.>.>.>.>.>.>.>.>.>.>.>.>.>.>.>.>.>.>.>.>.>.>.>.>.>.>.>.>.+.  - >.>.>.>.>.>.>.>.>.>.",
">.>.>.>.>.>.>.>.>.g   U >.>.>.>.>.>.>.>.>.>.>.>.>.>.>.>.>.>.>.>.>.>.>.>.>.>.>.>.>.>.>.>.>.>.>.>.>.>.>.+.  - >.>.>.>.>.>.>.>.>.>.",
">.>.>.>.>.>.>.>.>.g   U >.>.>.>.>.>.>.>.>.>.>.>.>.>.>.>.>.>.>.>.>.>.>.>.>.>.>.>.>.>.>.>.>.>.>.>.>.>.>.+.  - >.>.>.>.>.>.>.>.>.>.",
">.>.>.>.>.>.>.>.>.g   U >.>.>.>.>.>.>.>.>.>.>.>.>.>.>.>.>.>.>.>.>.>.>.>.>.>.>.>.>.>.>.>.>.>.>.>.>.>.>.$.  : >.>.>.>.>.>.>.>.>.>.",
">.>.>.>.>.>.>.>.>.g   U >.>.>.>.>.>.>.>.>.>.>.>.>.>.>.>.>.>.>.>.>.>.>.>.>.>.>.>.>.>.>.>.>.>.>.>.>.>.>.+.  - >.>.>.>.>.>.>.>.>.>.",
">.>.>.>.>.>.>.>.>.g   U >.>.>.>.>.>.>.>.>.>.>.>.>.>.>.>.>.>.>.>.>.>.>.>.>.>.>.>.>.>.>.>.>.>.>.>.>.>.>.+.  - >.>.>.>.>.>.>.>.>.>.",
">.>.>.>.>.>.>.>.>.g   U >.>.>.>.>.>.>.>.>.>.>.>.>.>.>.>.>.>.>.>.>.>.>.>.>.>.>.>.>.>.>.>.>.>.>.>.>.>.>.$.  : >.>.>.>.>.>.>.>.>.>.",
">.>.>.>.>.>.>.>.>.g   U >.>.>.>.>.>.>.>.>.>.>.>.>.>.>.>.>.>.>.>.>.>.>.>.>.>.>.>.>.>.>.>.>.>.>.>.>.>.>.$.  : >.>.>.>.>.>.>.>.>.>.",
">.>.>.>.>.>.>.>.>.p   T >.>.>.>.>.>.>.>.>.>.>.>.>.>.>.>.>.>.>.>.>.>.>.>.>.>.>.>.>.>.>.>.>.>.>.>.>.>.>.[   4 >.>.>.>.>.>.>.>.>.>.",
">.>.>.>.>.>.>.>.[ $   S P P P P P P P P P P P P P D C l f p p p p p p p p p p p p s s p p s z z z l f :   % *.>.>.>.>.>.>.>.>.>.",
">.>.>.>.>.>.>.>./                                                                                         O +.>.>.>.>.>.>.>.>.>.",
">.>.>.>.>.>.>.>.>.N 6 z z l l l l l l l z z l l z n N K P R R R R R R R R R R R R R R R R T P P P P U / _ $.>.>.>.>.>.>.>.>.>.>.",
">.>.>.>.>.>.>.>.>.>.>.>.>.>.>.>.>.>.>.>.>.>.>.>.>.>.>.>.>.>.>.>.>.>.>.>.>.>.>.>.>.>.>.>.>.>.>.>.>.>.>.>.>.>.>.>.>.>.>.>.>.>.>.>.",
">.>.>.>.>.>.>.>.>.>.>.>.>.>.>.>.>.>.>.>.>.>.>.>.>.>.>.>.>.>.>.>.>.>.>.>.>.>.>.>.>.>.>.>.>.>.>.>.>.>.>.>.>.>.>.>.>.>.>.>.>.>.>.>.",
">.>.>.>.>.>.>.>.>.>.>.>.>.>.>.>.>.>.>.>.>.>.>.>.>.>.>.>.>.>.>.>.>.>.>.>.>.>.>.>.>.>.>.>.>.>.>.>.>.>.>.>.>.>.>.>.>.>.>.>.>.>.>.>.",
">.>.>.>.>.>.>.>.>.>.>.>.>.>.>.>.>.>.>.>.>.>.>.>.>.>.>.>.>.>.>.>.>.>.>.>.>.>.>.>.>.>.>.>.>.>.>.>.>.>.>.>.>.>.>.>.>.>.>.>.>.>.>.>.",
">.>.>.>.>.>.>.>.>.>.>.>.>.>.>.>.>.>.>.>.>.>.>.>.>.>.>.>.>.>.>.>.>.>.>.>.>.>.>.>.>.>.>.>.>.>.>.>.>.>.>.>.>.>.>.>.>.>.>.>.>.>.>.>.",
">.>.>.>.>.>.>.>.>.>.>.>.>.>.>.>.>.>.>.>.>.>.>.>.>.>.>.>.>.>.>.>.>.>.>.>.>.>.>.>.>.>.>.>.>.>.>.>.>.>.>.>.>.>.>.>.>.>.>.>.>.>.>.>.",
">.>.>.>.>.>.>.>.>.>.>.>.>.>.>.>.>.>.>.>.>.>.>.>.>.>.>.>.>.>.>.>.>.>.>.>.>.>.>.>.>.>.>.>.>.>.>.>.>.>.>.>.>.>.>.>.>.>.>.>.>.>.>.>."
};
